<?xml version="1.0" encoding="UTF-8" standalone="no"?>
<!DOCTYPE svg PUBLIC "-//W3C//DTD SVG 1.1//EN"
 "http://www.w3.org/Graphics/SVG/1.1/DTD/svg11.dtd">
<!-- Generated by graphviz version 2.40.1 (0)
 -->
<!-- Title: snakemake_dag Pages: 1 -->
<svg width="1753pt" height="980pt"
 viewBox="0.00 0.00 1752.50 980.00" xmlns="http://www.w3.org/2000/svg" xmlns:xlink="http://www.w3.org/1999/xlink">
<g id="graph0" class="graph" transform="scale(1 1) rotate(0) translate(4 976)">
<title>snakemake_dag</title>
<polygon fill="#ffffff" stroke="transparent" points="-4,4 -4,-976 1748.5,-976 1748.5,4 -4,4"/>
<!-- 0 -->
<g id="node1" class="node">
<title>0</title>
<path fill="none" stroke="#56d0d8" stroke-width="2" d="M885.5,-36C885.5,-36 855.5,-36 855.5,-36 849.5,-36 843.5,-30 843.5,-24 843.5,-24 843.5,-12 843.5,-12 843.5,-6 849.5,0 855.5,0 855.5,0 885.5,0 885.5,0 891.5,0 897.5,-6 897.5,-12 897.5,-12 897.5,-24 897.5,-24 897.5,-30 891.5,-36 885.5,-36"/>
<text text-anchor="middle" x="870.5" y="-15.5" font-family="sans" font-size="10.00" fill="#000000">all</text>
</g>
<!-- 1 -->
<g id="node2" class="node">
<title>1</title>
<path fill="none" stroke="#c6d856" stroke-width="2" d="M902.5,-180C902.5,-180 838.5,-180 838.5,-180 832.5,-180 826.5,-174 826.5,-168 826.5,-168 826.5,-156 826.5,-156 826.5,-150 832.5,-144 838.5,-144 838.5,-144 902.5,-144 902.5,-144 908.5,-144 914.5,-150 914.5,-156 914.5,-156 914.5,-168 914.5,-168 914.5,-174 908.5,-180 902.5,-180"/>
<text text-anchor="middle" x="870.5" y="-159.5" font-family="sans" font-size="10.00" fill="#000000">plotASVLength</text>
</g>
<!-- 1&#45;&gt;0 -->
<g id="edge6" class="edge">
<title>1&#45;&gt;0</title>
<path fill="none" stroke="#c0c0c0" stroke-width="2" d="M870.5,-143.7623C870.5,-119.201 870.5,-75.2474 870.5,-46.3541"/>
<polygon fill="#c0c0c0" stroke="#c0c0c0" stroke-width="2" points="874.0001,-46.0896 870.5,-36.0896 867.0001,-46.0897 874.0001,-46.0896"/>
</g>
<!-- 25 -->
<g id="node26" class="node">
<title>25</title>
<path fill="none" stroke="#56d8b9" stroke-width="2" d="M999.5,-108C999.5,-108 961.5,-108 961.5,-108 955.5,-108 949.5,-102 949.5,-96 949.5,-96 949.5,-84 949.5,-84 949.5,-78 955.5,-72 961.5,-72 961.5,-72 999.5,-72 999.5,-72 1005.5,-72 1011.5,-78 1011.5,-84 1011.5,-84 1011.5,-96 1011.5,-96 1011.5,-102 1005.5,-108 999.5,-108"/>
<text text-anchor="middle" x="980.5" y="-87.5" font-family="sans" font-size="10.00" fill="#000000">qc_report</text>
</g>
<!-- 1&#45;&gt;25 -->
<g id="edge46" class="edge">
<title>1&#45;&gt;25</title>
<path fill="none" stroke="#c0c0c0" stroke-width="2" d="M898.2576,-143.8314C912.197,-134.7074 929.2598,-123.539 944.2231,-113.7449"/>
<polygon fill="#c0c0c0" stroke="#c0c0c0" stroke-width="2" points="946.301,-116.5679 952.7512,-108.1628 942.4674,-110.711 946.301,-116.5679"/>
</g>
<!-- 2 -->
<g id="node3" class="node">
<title>2</title>
<path fill="none" stroke="#d88556" stroke-width="2" d="M950,-468C950,-468 873,-468 873,-468 867,-468 861,-462 861,-456 861,-456 861,-444 861,-444 861,-438 867,-432 873,-432 873,-432 950,-432 950,-432 956,-432 962,-438 962,-444 962,-444 962,-456 962,-456 962,-462 956,-468 950,-468"/>
<text text-anchor="middle" x="911.5" y="-447.5" font-family="sans" font-size="10.00" fill="#000000">removeChimeras</text>
</g>
<!-- 2&#45;&gt;1 -->
<g id="edge20" class="edge">
<title>2&#45;&gt;1</title>
<path fill="none" stroke="#c0c0c0" stroke-width="2" d="M924.2393,-431.9549C951.5518,-390.844 1009.942,-288.203 967.5,-216 957.7756,-199.4568 940.9434,-187.6136 924.0029,-179.3168"/>
<polygon fill="#c0c0c0" stroke="#c0c0c0" stroke-width="2" points="925.1777,-176.0066 914.6248,-175.0651 922.2873,-182.382 925.1777,-176.0066"/>
</g>
<!-- 13 -->
<g id="node14" class="node">
<title>13</title>
<path fill="none" stroke="#d87556" stroke-width="2" d="M785,-396C785,-396 750,-396 750,-396 744,-396 738,-390 738,-384 738,-384 738,-372 738,-372 738,-366 744,-360 750,-360 750,-360 785,-360 785,-360 791,-360 797,-366 797,-372 797,-372 797,-384 797,-384 797,-390 791,-396 785,-396"/>
<text text-anchor="middle" x="767.5" y="-375.5" font-family="sans" font-size="10.00" fill="#000000">RDPtaxa</text>
</g>
<!-- 2&#45;&gt;13 -->
<g id="edge31" class="edge">
<title>2&#45;&gt;13</title>
<path fill="none" stroke="#c0c0c0" stroke-width="2" d="M875.1627,-431.8314C854.1152,-421.3076 827.628,-408.064 806.1927,-397.3463"/>
<polygon fill="#c0c0c0" stroke="#c0c0c0" stroke-width="2" points="807.552,-394.1129 797.0425,-392.7712 804.4215,-400.3739 807.552,-394.1129"/>
</g>
<!-- 14 -->
<g id="node15" class="node">
<title>14</title>
<path fill="none" stroke="#56d8c9" stroke-width="2" d="M1110.5,-396C1110.5,-396 1018.5,-396 1018.5,-396 1012.5,-396 1006.5,-390 1006.5,-384 1006.5,-384 1006.5,-372 1006.5,-372 1006.5,-366 1012.5,-360 1018.5,-360 1018.5,-360 1110.5,-360 1110.5,-360 1116.5,-360 1122.5,-366 1122.5,-372 1122.5,-372 1122.5,-384 1122.5,-384 1122.5,-390 1116.5,-396 1110.5,-396"/>
<text text-anchor="middle" x="1064.5" y="-375.5" font-family="sans" font-size="10.00" fill="#000000">combineReadCounts</text>
</g>
<!-- 2&#45;&gt;14 -->
<g id="edge34" class="edge">
<title>2&#45;&gt;14</title>
<path fill="none" stroke="#c0c0c0" stroke-width="2" d="M950.1084,-431.8314C970.3893,-422.2874 995.4238,-410.5065 1016.8971,-400.4013"/>
<polygon fill="#c0c0c0" stroke="#c0c0c0" stroke-width="2" points="1018.6114,-403.4629 1026.1693,-396.038 1015.6308,-397.1291 1018.6114,-403.4629"/>
</g>
<!-- 28 -->
<g id="node29" class="node">
<title>28</title>
<path fill="none" stroke="#56b1d8" stroke-width="2" d="M871.5,-396C871.5,-396 833.5,-396 833.5,-396 827.5,-396 821.5,-390 821.5,-384 821.5,-384 821.5,-372 821.5,-372 821.5,-366 827.5,-360 833.5,-360 833.5,-360 871.5,-360 871.5,-360 877.5,-360 883.5,-366 883.5,-372 883.5,-372 883.5,-384 883.5,-384 883.5,-390 877.5,-396 871.5,-396"/>
<text text-anchor="middle" x="852.5" y="-375.5" font-family="sans" font-size="10.00" fill="#000000">fasta_file</text>
</g>
<!-- 2&#45;&gt;28 -->
<g id="edge56" class="edge">
<title>2&#45;&gt;28</title>
<path fill="none" stroke="#c0c0c0" stroke-width="2" d="M896.6118,-431.8314C889.747,-423.454 881.4699,-413.3531 873.9489,-404.1749"/>
<polygon fill="#c0c0c0" stroke="#c0c0c0" stroke-width="2" points="876.6341,-401.9297 867.5886,-396.4133 871.2197,-406.3665 876.6341,-401.9297"/>
</g>
<!-- 29 -->
<g id="node30" class="node">
<title>29</title>
<path fill="none" stroke="#56d8d8" stroke-width="2" d="M821,-324C821,-324 714,-324 714,-324 708,-324 702,-318 702,-312 702,-312 702,-300 702,-300 702,-294 708,-288 714,-288 714,-288 821,-288 821,-288 827,-288 833,-294 833,-300 833,-300 833,-312 833,-312 833,-318 827,-324 821,-324"/>
<text text-anchor="middle" x="767.5" y="-303.5" font-family="sans" font-size="10.00" fill="#000000">combining_annotations</text>
</g>
<!-- 2&#45;&gt;29 -->
<g id="edge58" class="edge">
<title>2&#45;&gt;29</title>
<path fill="none" stroke="#c0c0c0" stroke-width="2" d="M912.3279,-431.7001C912.2525,-411.8886 909.1815,-380.3966 892.5,-360 879.633,-344.2674 861.31,-333.0115 842.647,-324.9998"/>
<polygon fill="#c0c0c0" stroke="#c0c0c0" stroke-width="2" points="843.7677,-321.6785 833.1832,-321.211 841.166,-328.177 843.7677,-321.6785"/>
</g>
<!-- 3 -->
<g id="node4" class="node">
<title>3</title>
<path fill="none" stroke="#d6d856" stroke-width="2" d="M1098.5,-540C1098.5,-540 1030.5,-540 1030.5,-540 1024.5,-540 1018.5,-534 1018.5,-528 1018.5,-528 1018.5,-516 1018.5,-516 1018.5,-510 1024.5,-504 1030.5,-504 1030.5,-504 1098.5,-504 1098.5,-504 1104.5,-504 1110.5,-510 1110.5,-516 1110.5,-516 1110.5,-528 1110.5,-528 1110.5,-534 1104.5,-540 1098.5,-540"/>
<text text-anchor="middle" x="1064.5" y="-519.5" font-family="sans" font-size="10.00" fill="#000000">merge_seqtabs</text>
</g>
<!-- 3&#45;&gt;2 -->
<g id="edge21" class="edge">
<title>3&#45;&gt;2</title>
<path fill="none" stroke="#c0c0c0" stroke-width="2" d="M1025.8916,-503.8314C1005.6107,-494.2874 980.5762,-482.5065 959.1029,-472.4013"/>
<polygon fill="#c0c0c0" stroke="#c0c0c0" stroke-width="2" points="960.3692,-469.1291 949.8307,-468.038 957.3886,-475.4629 960.3692,-469.1291"/>
</g>
<!-- 3&#45;&gt;14 -->
<g id="edge33" class="edge">
<title>3&#45;&gt;14</title>
<path fill="none" stroke="#c0c0c0" stroke-width="2" d="M1064.5,-503.7623C1064.5,-479.201 1064.5,-435.2474 1064.5,-406.3541"/>
<polygon fill="#c0c0c0" stroke="#c0c0c0" stroke-width="2" points="1068.0001,-406.0896 1064.5,-396.0896 1061.0001,-406.0897 1068.0001,-406.0896"/>
</g>
<!-- 4 -->
<g id="node5" class="node">
<title>4</title>
<path fill="none" stroke="#78d856" stroke-width="2" d="M1117,-612C1117,-612 1046,-612 1046,-612 1040,-612 1034,-606 1034,-600 1034,-600 1034,-588 1034,-588 1034,-582 1040,-576 1046,-576 1046,-576 1117,-576 1117,-576 1123,-576 1129,-582 1129,-588 1129,-588 1129,-600 1129,-600 1129,-606 1123,-612 1117,-612"/>
<text text-anchor="middle" x="1081.5" y="-591.5" font-family="sans" font-size="10.00" fill="#000000">process_sample</text>
</g>
<!-- 4&#45;&gt;3 -->
<g id="edge22" class="edge">
<title>4&#45;&gt;3</title>
<path fill="none" stroke="#c0c0c0" stroke-width="2" d="M1077.2102,-575.8314C1075.392,-568.131 1073.2301,-558.9743 1071.2095,-550.4166"/>
<polygon fill="#c0c0c0" stroke="#c0c0c0" stroke-width="2" points="1074.5519,-549.3414 1068.8476,-540.4133 1067.7392,-550.95 1074.5519,-549.3414"/>
</g>
<!-- 5 -->
<g id="node6" class="node">
<title>5</title>
<path fill="none" stroke="#d85656" stroke-width="2" d="M1179,-756C1179,-756 1132,-756 1132,-756 1126,-756 1120,-750 1120,-744 1120,-744 1120,-732 1120,-732 1120,-726 1126,-720 1132,-720 1132,-720 1179,-720 1179,-720 1185,-720 1191,-726 1191,-732 1191,-732 1191,-744 1191,-744 1191,-750 1185,-756 1179,-756"/>
<text text-anchor="middle" x="1155.5" y="-735.5" font-family="sans" font-size="10.00" fill="#000000">dada2Filter</text>
</g>
<!-- 5&#45;&gt;0 -->
<g id="edge1" class="edge">
<title>5&#45;&gt;0</title>
<path fill="none" stroke="#c0c0c0" stroke-width="2" d="M1191.2104,-730.1662C1275.6365,-710.6165 1480.5,-656.7169 1480.5,-594 1480.5,-594 1480.5,-594 1480.5,-450 1480.5,-310.7782 1633.7367,-253.2975 1547.5,-144 1467.2782,-42.3258 1037.9318,-22.5009 907.8667,-18.8089"/>
<polygon fill="#c0c0c0" stroke="#c0c0c0" stroke-width="2" points="907.7115,-15.3036 897.6213,-18.5343 907.5239,-22.301 907.7115,-15.3036"/>
</g>
<!-- 5&#45;&gt;4 -->
<g id="edge24" class="edge">
<title>5&#45;&gt;4</title>
<path fill="none" stroke="#c0c0c0" stroke-width="2" d="M1131.3993,-719.914C1120.3668,-710.4021 1108.0885,-697.8473 1100.5,-684 1090.107,-665.035 1085.3928,-640.9498 1083.2576,-622.4684"/>
<polygon fill="#c0c0c0" stroke="#c0c0c0" stroke-width="2" points="1086.7221,-621.9318 1082.2751,-612.3155 1079.7547,-622.6062 1086.7221,-621.9318"/>
</g>
<!-- 9 -->
<g id="node10" class="node">
<title>9</title>
<path fill="none" stroke="#88d856" stroke-width="2" d="M1189.5,-684C1189.5,-684 1121.5,-684 1121.5,-684 1115.5,-684 1109.5,-678 1109.5,-672 1109.5,-672 1109.5,-660 1109.5,-660 1109.5,-654 1115.5,-648 1121.5,-648 1121.5,-648 1189.5,-648 1189.5,-648 1195.5,-648 1201.5,-654 1201.5,-660 1201.5,-660 1201.5,-672 1201.5,-672 1201.5,-678 1195.5,-684 1189.5,-684"/>
<text text-anchor="middle" x="1155.5" y="-663.5" font-family="sans" font-size="10.00" fill="#000000">learnErrorRates</text>
</g>
<!-- 5&#45;&gt;9 -->
<g id="edge28" class="edge">
<title>5&#45;&gt;9</title>
<path fill="none" stroke="#c0c0c0" stroke-width="2" d="M1155.5,-719.8314C1155.5,-712.131 1155.5,-702.9743 1155.5,-694.4166"/>
<polygon fill="#c0c0c0" stroke="#c0c0c0" stroke-width="2" points="1159.0001,-694.4132 1155.5,-684.4133 1152.0001,-694.4133 1159.0001,-694.4132"/>
</g>
<!-- 12 -->
<g id="node13" class="node">
<title>12</title>
<path fill="none" stroke="#70d856" stroke-width="2" d="M1228,-180C1228,-180 1097,-180 1097,-180 1091,-180 1085,-174 1085,-168 1085,-168 1085,-156 1085,-156 1085,-150 1091,-144 1097,-144 1097,-144 1228,-144 1228,-144 1234,-144 1240,-150 1240,-156 1240,-156 1240,-168 1240,-168 1240,-174 1234,-180 1228,-180"/>
<text text-anchor="middle" x="1162.5" y="-159.5" font-family="sans" font-size="10.00" fill="#000000">plotQualityProfileAfterdada2</text>
</g>
<!-- 5&#45;&gt;12 -->
<g id="edge30" class="edge">
<title>5&#45;&gt;12</title>
<path fill="none" stroke="#c0c0c0" stroke-width="2" d="M1178.1479,-719.8602C1189.0951,-710.1563 1201.7283,-697.4504 1210.5,-684 1233.8575,-648.1841 1244.5,-636.7592 1244.5,-594 1244.5,-594 1244.5,-594 1244.5,-306 1244.5,-259.6535 1212.0278,-214.6131 1187.952,-187.5884"/>
<polygon fill="#c0c0c0" stroke="#c0c0c0" stroke-width="2" points="1190.4467,-185.1303 1181.1071,-180.1281 1185.2888,-189.8627 1190.4467,-185.1303"/>
</g>
<!-- 5&#45;&gt;14 -->
<g id="edge32" class="edge">
<title>5&#45;&gt;14</title>
<path fill="none" stroke="#c0c0c0" stroke-width="2" d="M1119.6975,-725.2254C1071.1696,-705.3433 990.5,-662.0573 990.5,-594 990.5,-594 990.5,-594 990.5,-522 990.5,-476.6585 1019.8824,-431.2822 1041.618,-403.9182"/>
<polygon fill="#c0c0c0" stroke="#c0c0c0" stroke-width="2" points="1044.4532,-405.9801 1048.077,-396.0242 1039.0356,-401.5472 1044.4532,-405.9801"/>
</g>
<!-- 23 -->
<g id="node24" class="node">
<title>23</title>
<path fill="none" stroke="#56d87b" stroke-width="2" d="M544,-108C544,-108 449,-108 449,-108 443,-108 437,-102 437,-96 437,-96 437,-84 437,-84 437,-78 443,-72 449,-72 449,-72 544,-72 544,-72 550,-72 556,-78 556,-84 556,-84 556,-96 556,-96 556,-102 550,-108 544,-108"/>
<text text-anchor="middle" x="496.5" y="-87.5" font-family="sans" font-size="10.00" fill="#000000">seqkit_counts_dada2</text>
</g>
<!-- 5&#45;&gt;23 -->
<g id="edge42" class="edge">
<title>5&#45;&gt;23</title>
<path fill="none" stroke="#c0c0c0" stroke-width="2" d="M1119.6825,-733.9152C983.6268,-717.9247 506.5,-657.3333 506.5,-594 506.5,-594 506.5,-594 506.5,-234 506.5,-193.7793 502.5695,-147.391 499.6368,-118.3773"/>
<polygon fill="#c0c0c0" stroke="#c0c0c0" stroke-width="2" points="503.0896,-117.7407 498.572,-108.1573 496.1272,-118.4662 503.0896,-117.7407"/>
</g>
<!-- 6 -->
<g id="node7" class="node">
<title>6</title>
<path fill="none" stroke="#5673d8" stroke-width="2" d="M1362,-828C1362,-828 1313,-828 1313,-828 1307,-828 1301,-822 1301,-816 1301,-816 1301,-804 1301,-804 1301,-798 1307,-792 1313,-792 1313,-792 1362,-792 1362,-792 1368,-792 1374,-798 1374,-804 1374,-804 1374,-816 1374,-816 1374,-822 1368,-828 1362,-828"/>
<text text-anchor="middle" x="1337.5" y="-807.5" font-family="sans" font-size="10.00" fill="#000000">cutAdaptQc</text>
</g>
<!-- 6&#45;&gt;5 -->
<g id="edge25" class="edge">
<title>6&#45;&gt;5</title>
<path fill="none" stroke="#c0c0c0" stroke-width="2" d="M1300.6696,-795.4297C1271.8021,-784.0096 1231.5,-768.0659 1200.6828,-755.8745"/>
<polygon fill="#c0c0c0" stroke="#c0c0c0" stroke-width="2" points="1201.6234,-752.4827 1191.037,-752.0586 1199.0483,-758.9919 1201.6234,-752.4827"/>
</g>
<!-- 10 -->
<g id="node11" class="node">
<title>10</title>
<path fill="none" stroke="#5682d8" stroke-width="2" d="M1386.5,-180C1386.5,-180 1270.5,-180 1270.5,-180 1264.5,-180 1258.5,-174 1258.5,-168 1258.5,-168 1258.5,-156 1258.5,-156 1258.5,-150 1264.5,-144 1270.5,-144 1270.5,-144 1386.5,-144 1386.5,-144 1392.5,-144 1398.5,-150 1398.5,-156 1398.5,-156 1398.5,-168 1398.5,-168 1398.5,-174 1392.5,-180 1386.5,-180"/>
<text text-anchor="middle" x="1328.5" y="-159.5" font-family="sans" font-size="10.00" fill="#000000">plotQualityProfileAfterQC</text>
</g>
<!-- 6&#45;&gt;10 -->
<g id="edge29" class="edge">
<title>6&#45;&gt;10</title>
<path fill="none" stroke="#c0c0c0" stroke-width="2" d="M1370.6982,-791.9647C1422.9514,-762.4393 1518.5,-703.3444 1518.5,-666 1518.5,-666 1518.5,-666 1518.5,-306 1518.5,-243.9183 1453.2738,-205.1511 1399.2553,-183.6903"/>
<polygon fill="#c0c0c0" stroke="#c0c0c0" stroke-width="2" points="1400.2532,-180.3244 1389.663,-180.0105 1397.746,-186.86 1400.2532,-180.3244"/>
</g>
<!-- 18 -->
<g id="node19" class="node">
<title>18</title>
<path fill="none" stroke="#d8ac56" stroke-width="2" d="M1597,-756C1597,-756 1560,-756 1560,-756 1554,-756 1548,-750 1548,-744 1548,-744 1548,-732 1548,-732 1548,-726 1554,-720 1560,-720 1560,-720 1597,-720 1597,-720 1603,-720 1609,-726 1609,-732 1609,-732 1609,-744 1609,-744 1609,-750 1603,-756 1597,-756"/>
<text text-anchor="middle" x="1578.5" y="-735.5" font-family="sans" font-size="10.00" fill="#000000">fastqcFilt</text>
</g>
<!-- 6&#45;&gt;18 -->
<g id="edge38" class="edge">
<title>6&#45;&gt;18</title>
<path fill="none" stroke="#c0c0c0" stroke-width="2" d="M1374.2503,-795.1115C1377.3608,-794.0064 1380.4734,-792.9529 1383.5,-792 1448.4828,-771.5399 1467.5172,-776.4601 1532.5,-756 1534.3405,-755.4205 1536.2128,-754.8039 1538.0971,-754.161"/>
<polygon fill="#c0c0c0" stroke="#c0c0c0" stroke-width="2" points="1539.2951,-757.4497 1547.5269,-750.7797 1536.9324,-750.8605 1539.2951,-757.4497"/>
</g>
<!-- 24 -->
<g id="node25" class="node">
<title>24</title>
<path fill="none" stroke="#d89556" stroke-width="2" d="M281.5,-108C281.5,-108 173.5,-108 173.5,-108 167.5,-108 161.5,-102 161.5,-96 161.5,-96 161.5,-84 161.5,-84 161.5,-78 167.5,-72 173.5,-72 173.5,-72 281.5,-72 281.5,-72 287.5,-72 293.5,-78 293.5,-84 293.5,-84 293.5,-96 293.5,-96 293.5,-102 287.5,-108 281.5,-108"/>
<text text-anchor="middle" x="227.5" y="-87.5" font-family="sans" font-size="10.00" fill="#000000">seqkit_counts_cutadapt</text>
</g>
<!-- 6&#45;&gt;24 -->
<g id="edge44" class="edge">
<title>6&#45;&gt;24</title>
<path fill="none" stroke="#c0c0c0" stroke-width="2" d="M1300.8885,-809.1088C1110.9466,-804.0125 246.5,-774.8402 246.5,-666 246.5,-666 246.5,-666 246.5,-234 246.5,-193.5282 239.032,-147.2037 233.46,-118.2725"/>
<polygon fill="#c0c0c0" stroke="#c0c0c0" stroke-width="2" points="236.8177,-117.2111 231.4368,-108.0844 229.9517,-118.5746 236.8177,-117.2111"/>
</g>
<!-- 7 -->
<g id="node8" class="node">
<title>7</title>
<path fill="none" stroke="#d86656" stroke-width="2" d="M1387.5,-900C1387.5,-900 1351.5,-900 1351.5,-900 1345.5,-900 1339.5,-894 1339.5,-888 1339.5,-888 1339.5,-876 1339.5,-876 1339.5,-870 1345.5,-864 1351.5,-864 1351.5,-864 1387.5,-864 1387.5,-864 1393.5,-864 1399.5,-870 1399.5,-876 1399.5,-876 1399.5,-888 1399.5,-888 1399.5,-894 1393.5,-900 1387.5,-900"/>
<text text-anchor="middle" x="1369.5" y="-879.5" font-family="sans" font-size="10.00" fill="#000000">cutAdapt</text>
</g>
<!-- 7&#45;&gt;6 -->
<g id="edge26" class="edge">
<title>7&#45;&gt;6</title>
<path fill="none" stroke="#c0c0c0" stroke-width="2" d="M1361.425,-863.8314C1357.8898,-855.8771 1353.664,-846.369 1349.7544,-837.5723"/>
<polygon fill="#c0c0c0" stroke="#c0c0c0" stroke-width="2" points="1352.9435,-836.1299 1345.6837,-828.4133 1346.5468,-838.9729 1352.9435,-836.1299"/>
</g>
<!-- 32 -->
<g id="node33" class="node">
<title>32</title>
<path fill="none" stroke="#d8a456" stroke-width="2" d="M131,-108C131,-108 12,-108 12,-108 6,-108 0,-102 0,-96 0,-96 0,-84 0,-84 0,-78 6,-72 12,-72 12,-72 131,-72 131,-72 137,-72 143,-78 143,-84 143,-84 143,-96 143,-96 143,-102 137,-108 131,-108"/>
<text text-anchor="middle" x="71.5" y="-87.5" font-family="sans" font-size="10.00" fill="#000000">seqkit_counts_primerRMV</text>
</g>
<!-- 7&#45;&gt;32 -->
<g id="edge63" class="edge">
<title>7&#45;&gt;32</title>
<path fill="none" stroke="#c0c0c0" stroke-width="2" d="M1339.3839,-881.805C1148.3765,-880.1822 113.5,-865.5065 113.5,-738 113.5,-738 113.5,-738 113.5,-234 113.5,-192.0688 96.8848,-145.918 84.5552,-117.4435"/>
<polygon fill="#c0c0c0" stroke="#c0c0c0" stroke-width="2" points="87.6775,-115.8513 80.4071,-108.1447 81.2848,-118.7032 87.6775,-115.8513"/>
</g>
<!-- 33 -->
<g id="node34" class="node">
<title>33</title>
<path fill="none" stroke="#a7d856" stroke-width="2" d="M1514.5,-828C1514.5,-828 1404.5,-828 1404.5,-828 1398.5,-828 1392.5,-822 1392.5,-816 1392.5,-816 1392.5,-804 1392.5,-804 1392.5,-798 1398.5,-792 1404.5,-792 1404.5,-792 1514.5,-792 1514.5,-792 1520.5,-792 1526.5,-798 1526.5,-804 1526.5,-804 1526.5,-816 1526.5,-816 1526.5,-822 1520.5,-828 1514.5,-828"/>
<text text-anchor="middle" x="1459.5" y="-807.5" font-family="sans" font-size="10.00" fill="#000000">primerRMVinvestigation</text>
</g>
<!-- 7&#45;&gt;33 -->
<g id="edge65" class="edge">
<title>7&#45;&gt;33</title>
<path fill="none" stroke="#c0c0c0" stroke-width="2" d="M1392.2108,-863.8314C1403.296,-854.9632 1416.7954,-844.1637 1428.7852,-834.5718"/>
<polygon fill="#c0c0c0" stroke="#c0c0c0" stroke-width="2" points="1431.1742,-837.1429 1436.7965,-828.1628 1426.8013,-831.6768 1431.1742,-837.1429"/>
</g>
<!-- 8 -->
<g id="node9" class="node">
<title>8</title>
<path fill="none" stroke="#56d86b" stroke-width="2" d="M1423,-972C1423,-972 1374,-972 1374,-972 1368,-972 1362,-966 1362,-960 1362,-960 1362,-948 1362,-948 1362,-942 1368,-936 1374,-936 1374,-936 1423,-936 1423,-936 1429,-936 1435,-942 1435,-948 1435,-948 1435,-960 1435,-960 1435,-966 1429,-972 1423,-972"/>
<text text-anchor="middle" x="1398.5" y="-951.5" font-family="sans" font-size="10.00" fill="#000000">filterNsRaw</text>
</g>
<!-- 8&#45;&gt;7 -->
<g id="edge27" class="edge">
<title>8&#45;&gt;7</title>
<path fill="none" stroke="#c0c0c0" stroke-width="2" d="M1391.1821,-935.8314C1388.0124,-927.9617 1384.23,-918.5712 1380.7187,-909.8533"/>
<polygon fill="#c0c0c0" stroke="#c0c0c0" stroke-width="2" points="1383.8992,-908.3815 1376.9165,-900.4133 1377.4061,-910.9968 1383.8992,-908.3815"/>
</g>
<!-- 8&#45;&gt;33 -->
<g id="edge64" class="edge">
<title>8&#45;&gt;33</title>
<path fill="none" stroke="#c0c0c0" stroke-width="2" d="M1406.2257,-935.7623C1416.7218,-910.9846 1435.5781,-866.4714 1447.8109,-837.5939"/>
<polygon fill="#c0c0c0" stroke="#c0c0c0" stroke-width="2" points="1451.1592,-838.6628 1451.837,-828.0896 1444.7136,-835.9323 1451.1592,-838.6628"/>
</g>
<!-- 9&#45;&gt;4 -->
<g id="edge23" class="edge">
<title>9&#45;&gt;4</title>
<path fill="none" stroke="#c0c0c0" stroke-width="2" d="M1136.8267,-647.8314C1127.9751,-639.219 1117.2514,-628.7851 1107.6105,-619.4048"/>
<polygon fill="#c0c0c0" stroke="#c0c0c0" stroke-width="2" points="1109.7754,-616.6279 1100.1674,-612.1628 1104.8939,-621.645 1109.7754,-616.6279"/>
</g>
<!-- 10&#45;&gt;0 -->
<g id="edge19" class="edge">
<title>10&#45;&gt;0</title>
<path fill="none" stroke="#c0c0c0" stroke-width="2" d="M1289.4977,-143.96C1245.7006,-124.2306 1172.1512,-92.6721 1106.5,-72 1037.5473,-50.2883 954.7211,-33.3761 907.7866,-24.6145"/>
<polygon fill="#c0c0c0" stroke="#c0c0c0" stroke-width="2" points="908.244,-21.1399 897.775,-22.7679 906.9742,-28.0238 908.244,-21.1399"/>
</g>
<!-- 10&#45;&gt;25 -->
<g id="edge48" class="edge">
<title>10&#45;&gt;25</title>
<path fill="none" stroke="#c0c0c0" stroke-width="2" d="M1258.3096,-145.908C1255.3346,-145.2573 1252.3885,-144.6189 1249.5,-144 1168.9381,-126.7389 1074.4383,-108.1512 1021.613,-97.9096"/>
<polygon fill="#c0c0c0" stroke="#c0c0c0" stroke-width="2" points="1022.1029,-94.4395 1011.62,-95.9754 1020.7727,-101.312 1022.1029,-94.4395"/>
</g>
<!-- 11 -->
<g id="node12" class="node">
<title>11</title>
<path fill="none" stroke="#56a2d8" stroke-width="2" d="M1526.5,-180C1526.5,-180 1428.5,-180 1428.5,-180 1422.5,-180 1416.5,-174 1416.5,-168 1416.5,-168 1416.5,-156 1416.5,-156 1416.5,-150 1422.5,-144 1428.5,-144 1428.5,-144 1526.5,-144 1526.5,-144 1532.5,-144 1538.5,-150 1538.5,-156 1538.5,-156 1538.5,-168 1538.5,-168 1538.5,-174 1532.5,-180 1526.5,-180"/>
<text text-anchor="middle" x="1477.5" y="-159.5" font-family="sans" font-size="10.00" fill="#000000">plotQualityProfileRaw</text>
</g>
<!-- 11&#45;&gt;0 -->
<g id="edge18" class="edge">
<title>11&#45;&gt;0</title>
<path fill="none" stroke="#c0c0c0" stroke-width="2" d="M1422.3283,-143.9623C1361.055,-124.3803 1258.967,-93.0882 1169.5,-72 1076.2151,-50.0118 964.7326,-32.0342 907.8728,-23.4502"/>
<polygon fill="#c0c0c0" stroke="#c0c0c0" stroke-width="2" points="908.3163,-19.9777 897.9082,-21.9578 907.2794,-26.9005 908.3163,-19.9777"/>
</g>
<!-- 11&#45;&gt;25 -->
<g id="edge45" class="edge">
<title>11&#45;&gt;25</title>
<path fill="none" stroke="#c0c0c0" stroke-width="2" d="M1416.1385,-145.7555C1413.2253,-145.131 1410.3348,-144.5415 1407.5,-144 1267.1281,-117.1866 1098.1707,-100.2976 1021.6867,-93.4698"/>
<polygon fill="#c0c0c0" stroke="#c0c0c0" stroke-width="2" points="1021.7897,-89.9654 1011.5208,-92.5731 1021.1746,-96.9383 1021.7897,-89.9654"/>
</g>
<!-- 12&#45;&gt;0 -->
<g id="edge9" class="edge">
<title>12&#45;&gt;0</title>
<path fill="none" stroke="#c0c0c0" stroke-width="2" d="M1148.6208,-143.6417C1132.1786,-123.1702 1102.8996,-90.5104 1070.5,-72 1018.5364,-42.3124 949.6265,-28.4038 907.7544,-22.3044"/>
<polygon fill="#c0c0c0" stroke="#c0c0c0" stroke-width="2" points="908.1034,-18.8194 897.7183,-20.9171 907.1448,-25.7535 908.1034,-18.8194"/>
</g>
<!-- 12&#45;&gt;25 -->
<g id="edge47" class="edge">
<title>12&#45;&gt;25</title>
<path fill="none" stroke="#c0c0c0" stroke-width="2" d="M1116.5737,-143.8314C1087.1838,-132.2046 1049.4022,-117.258 1021.1105,-106.0657"/>
<polygon fill="#c0c0c0" stroke="#c0c0c0" stroke-width="2" points="1022.1148,-102.6991 1011.5285,-102.275 1019.5398,-109.2083 1022.1148,-102.6991"/>
</g>
<!-- 13&#45;&gt;0 -->
<g id="edge2" class="edge">
<title>13&#45;&gt;0</title>
<path fill="none" stroke="#c0c0c0" stroke-width="2" d="M737.9078,-372.1414C711.3395,-365.2769 673.3989,-351.1958 652.5,-324 603.7418,-260.5508 626.439,-218.1586 656.5,-144 670.5021,-109.4576 670.2654,-95.1208 699.5,-72 738.7838,-40.9316 796.2238,-27.586 833.487,-21.9577"/>
<polygon fill="#c0c0c0" stroke="#c0c0c0" stroke-width="2" points="834.0117,-25.4185 843.4303,-20.5666 833.0418,-18.486 834.0117,-25.4185"/>
</g>
<!-- 13&#45;&gt;29 -->
<g id="edge57" class="edge">
<title>13&#45;&gt;29</title>
<path fill="none" stroke="#c0c0c0" stroke-width="2" d="M767.5,-359.8314C767.5,-352.131 767.5,-342.9743 767.5,-334.4166"/>
<polygon fill="#c0c0c0" stroke="#c0c0c0" stroke-width="2" points="771.0001,-334.4132 767.5,-324.4133 764.0001,-334.4133 771.0001,-334.4132"/>
</g>
<!-- 14&#45;&gt;0 -->
<g id="edge14" class="edge">
<title>14&#45;&gt;0</title>
<path fill="none" stroke="#c0c0c0" stroke-width="2" d="M1067.7631,-359.6357C1075.8547,-307.8775 1091.3843,-158.9381 1020.5,-72 1005.939,-54.1412 946.8637,-36.6696 907.3393,-26.6364"/>
<polygon fill="#c0c0c0" stroke="#c0c0c0" stroke-width="2" points="908.0535,-23.2075 897.5044,-24.19 906.3638,-30.0005 908.0535,-23.2075"/>
</g>
<!-- 14&#45;&gt;25 -->
<g id="edge51" class="edge">
<title>14&#45;&gt;25</title>
<path fill="none" stroke="#c0c0c0" stroke-width="2" d="M1058.9962,-359.5127C1055.8992,-349.0878 1051.969,-335.8216 1048.5,-324 1026.6646,-249.5895 1001.2351,-161.767 988.5535,-117.89"/>
<polygon fill="#c0c0c0" stroke="#c0c0c0" stroke-width="2" points="991.8962,-116.8496 985.7578,-108.2142 985.1713,-118.7928 991.8962,-116.8496"/>
</g>
<!-- 15 -->
<g id="node16" class="node">
<title>15</title>
<path fill="none" stroke="#56d85b" stroke-width="2" d="M1183,-468C1183,-468 1124,-468 1124,-468 1118,-468 1112,-462 1112,-456 1112,-456 1112,-444 1112,-444 1112,-438 1118,-432 1124,-432 1124,-432 1183,-432 1183,-432 1189,-432 1195,-438 1195,-444 1195,-444 1195,-456 1195,-456 1195,-462 1189,-468 1183,-468"/>
<text text-anchor="middle" x="1153.5" y="-447.5" font-family="sans" font-size="10.00" fill="#000000">numSeqParse</text>
</g>
<!-- 15&#45;&gt;14 -->
<g id="edge35" class="edge">
<title>15&#45;&gt;14</title>
<path fill="none" stroke="#c0c0c0" stroke-width="2" d="M1131.0415,-431.8314C1120.0795,-422.9632 1106.7301,-412.1637 1094.8735,-402.5718"/>
<polygon fill="#c0c0c0" stroke="#c0c0c0" stroke-width="2" points="1096.9271,-399.7313 1086.9513,-396.1628 1092.5245,-405.1734 1096.9271,-399.7313"/>
</g>
<!-- 16 -->
<g id="node17" class="node">
<title>16</title>
<path fill="none" stroke="#d8bc56" stroke-width="2" d="M1204,-540C1204,-540 1141,-540 1141,-540 1135,-540 1129,-534 1129,-528 1129,-528 1129,-516 1129,-516 1129,-510 1135,-504 1141,-504 1141,-504 1204,-504 1204,-504 1210,-504 1216,-510 1216,-516 1216,-516 1216,-528 1216,-528 1216,-534 1210,-540 1204,-540"/>
<text text-anchor="middle" x="1172.5" y="-519.5" font-family="sans" font-size="10.00" fill="#000000">rawReadCount</text>
</g>
<!-- 16&#45;&gt;15 -->
<g id="edge36" class="edge">
<title>16&#45;&gt;15</title>
<path fill="none" stroke="#c0c0c0" stroke-width="2" d="M1167.7055,-503.8314C1165.6511,-496.0463 1163.204,-486.7729 1160.9244,-478.1347"/>
<polygon fill="#c0c0c0" stroke="#c0c0c0" stroke-width="2" points="1164.2948,-477.1892 1158.3591,-468.4133 1157.5265,-478.9753 1164.2948,-477.1892"/>
</g>
<!-- 17 -->
<g id="node18" class="node">
<title>17</title>
<path fill="none" stroke="#d8cb56" stroke-width="2" d="M1602.5,-612C1602.5,-612 1558.5,-612 1558.5,-612 1552.5,-612 1546.5,-606 1546.5,-600 1546.5,-600 1546.5,-588 1546.5,-588 1546.5,-582 1552.5,-576 1558.5,-576 1558.5,-576 1602.5,-576 1602.5,-576 1608.5,-576 1614.5,-582 1614.5,-588 1614.5,-588 1614.5,-600 1614.5,-600 1614.5,-606 1608.5,-612 1602.5,-612"/>
<text text-anchor="middle" x="1580.5" y="-591.5" font-family="sans" font-size="10.00" fill="#000000">multiqcFilt</text>
</g>
<!-- 17&#45;&gt;0 -->
<g id="edge5" class="edge">
<title>17&#45;&gt;0</title>
<path fill="none" stroke="#c0c0c0" stroke-width="2" d="M1585.4728,-575.9753C1592.5026,-548.864 1604.5,-495.8742 1604.5,-450 1604.5,-450 1604.5,-450 1604.5,-162 1604.5,-120.6022 1612.3473,-98.4486 1580.5,-72 1528.4799,-28.7984 1046.7341,-19.998 907.8244,-18.3527"/>
<polygon fill="#c0c0c0" stroke="#c0c0c0" stroke-width="2" points="907.7184,-14.8513 897.6795,-18.2382 907.6393,-21.8509 907.7184,-14.8513"/>
</g>
<!-- 18&#45;&gt;17 -->
<g id="edge37" class="edge">
<title>18&#45;&gt;17</title>
<path fill="none" stroke="#c0c0c0" stroke-width="2" d="M1578.7533,-719.7623C1579.0944,-695.201 1579.7049,-651.2474 1580.1062,-622.3541"/>
<polygon fill="#c0c0c0" stroke="#c0c0c0" stroke-width="2" points="1583.6094,-622.1373 1580.2488,-612.0896 1576.6101,-622.04 1583.6094,-622.1373"/>
</g>
<!-- 19 -->
<g id="node20" class="node">
<title>19</title>
<path fill="none" stroke="#61d856" stroke-width="2" d="M1732.5,-108C1732.5,-108 1682.5,-108 1682.5,-108 1676.5,-108 1670.5,-102 1670.5,-96 1670.5,-96 1670.5,-84 1670.5,-84 1670.5,-78 1676.5,-72 1682.5,-72 1682.5,-72 1732.5,-72 1732.5,-72 1738.5,-72 1744.5,-78 1744.5,-84 1744.5,-84 1744.5,-96 1744.5,-96 1744.5,-102 1738.5,-108 1732.5,-108"/>
<text text-anchor="middle" x="1707.5" y="-87.5" font-family="sans" font-size="10.00" fill="#000000">multiqcRaw</text>
</g>
<!-- 19&#45;&gt;0 -->
<g id="edge10" class="edge">
<title>19&#45;&gt;0</title>
<path fill="none" stroke="#c0c0c0" stroke-width="2" d="M1670.2275,-75.5537C1665.6547,-74.1664 1661.0055,-72.9318 1656.5,-72 1510.5999,-41.8251 1043.8229,-23.9017 907.9428,-19.2299"/>
<polygon fill="#c0c0c0" stroke="#c0c0c0" stroke-width="2" points="907.7576,-15.7216 897.6444,-18.8795 907.5196,-22.7176 907.7576,-15.7216"/>
</g>
<!-- 20 -->
<g id="node21" class="node">
<title>20</title>
<path fill="none" stroke="#5692d8" stroke-width="2" d="M1729.5,-180C1729.5,-180 1685.5,-180 1685.5,-180 1679.5,-180 1673.5,-174 1673.5,-168 1673.5,-168 1673.5,-156 1673.5,-156 1673.5,-150 1679.5,-144 1685.5,-144 1685.5,-144 1729.5,-144 1729.5,-144 1735.5,-144 1741.5,-150 1741.5,-156 1741.5,-156 1741.5,-168 1741.5,-168 1741.5,-174 1735.5,-180 1729.5,-180"/>
<text text-anchor="middle" x="1707.5" y="-159.5" font-family="sans" font-size="10.00" fill="#000000">fastqcRaw</text>
</g>
<!-- 20&#45;&gt;19 -->
<g id="edge39" class="edge">
<title>20&#45;&gt;19</title>
<path fill="none" stroke="#c0c0c0" stroke-width="2" d="M1707.5,-143.8314C1707.5,-136.131 1707.5,-126.9743 1707.5,-118.4166"/>
<polygon fill="#c0c0c0" stroke="#c0c0c0" stroke-width="2" points="1711.0001,-118.4132 1707.5,-108.4133 1704.0001,-118.4133 1711.0001,-118.4132"/>
</g>
<!-- 21 -->
<g id="node22" class="node">
<title>21</title>
<path fill="none" stroke="#97d856" stroke-width="2" d="M407,-108C407,-108 324,-108 324,-108 318,-108 312,-102 312,-96 312,-96 312,-84 312,-84 312,-78 318,-72 324,-72 324,-72 407,-72 407,-72 413,-72 419,-78 419,-84 419,-84 419,-96 419,-96 419,-102 413,-108 407,-108"/>
<text text-anchor="middle" x="365.5" y="-87.5" font-family="sans" font-size="10.00" fill="#000000">seqkit_counts_raw</text>
</g>
<!-- 21&#45;&gt;0 -->
<g id="edge8" class="edge">
<title>21&#45;&gt;0</title>
<path fill="none" stroke="#c0c0c0" stroke-width="2" d="M419.1361,-73.8542C421.9546,-73.1859 424.7548,-72.562 427.5,-72 576.1148,-41.5761 756.5308,-26.1028 833.1748,-20.5073"/>
<polygon fill="#c0c0c0" stroke="#c0c0c0" stroke-width="2" points="833.5625,-23.9886 843.2867,-19.7828 833.0622,-17.0065 833.5625,-23.9886"/>
</g>
<!-- 22 -->
<g id="node23" class="node">
<title>22</title>
<path fill="none" stroke="#b6d856" stroke-width="2" d="M372,-180C372,-180 323,-180 323,-180 317,-180 311,-174 311,-168 311,-168 311,-156 311,-156 311,-150 317,-144 323,-144 323,-144 372,-144 372,-144 378,-144 384,-150 384,-156 384,-156 384,-168 384,-168 384,-174 378,-180 372,-180"/>
<text text-anchor="middle" x="347.5" y="-159.5" font-family="sans" font-size="10.00" fill="#000000">list_sample</text>
</g>
<!-- 22&#45;&gt;21 -->
<g id="edge40" class="edge">
<title>22&#45;&gt;21</title>
<path fill="none" stroke="#c0c0c0" stroke-width="2" d="M352.0422,-143.8314C353.9884,-136.0463 356.3068,-126.7729 358.4663,-118.1347"/>
<polygon fill="#c0c0c0" stroke="#c0c0c0" stroke-width="2" points="361.8668,-118.9636 360.8967,-108.4133 355.0758,-117.2658 361.8668,-118.9636"/>
</g>
<!-- 22&#45;&gt;23 -->
<g id="edge41" class="edge">
<title>22&#45;&gt;23</title>
<path fill="none" stroke="#c0c0c0" stroke-width="2" d="M384.3315,-144.2022C404.1497,-134.6256 428.7941,-122.7169 449.9311,-112.5031"/>
<polygon fill="#c0c0c0" stroke="#c0c0c0" stroke-width="2" points="451.5762,-115.5954 459.0573,-108.0931 448.5306,-109.2927 451.5762,-115.5954"/>
</g>
<!-- 22&#45;&gt;24 -->
<g id="edge43" class="edge">
<title>22&#45;&gt;24</title>
<path fill="none" stroke="#c0c0c0" stroke-width="2" d="M317.2189,-143.8314C301.8702,-134.6221 283.0502,-123.3301 266.6177,-113.4706"/>
<polygon fill="#c0c0c0" stroke="#c0c0c0" stroke-width="2" points="268.1471,-110.3066 257.7714,-108.1628 264.5456,-116.3091 268.1471,-110.3066"/>
</g>
<!-- 22&#45;&gt;32 -->
<g id="edge62" class="edge">
<title>22&#45;&gt;32</title>
<path fill="none" stroke="#c0c0c0" stroke-width="2" d="M310.8493,-152.439C270.1265,-141.8156 203.1616,-124.3465 150.4038,-110.5836"/>
<polygon fill="#c0c0c0" stroke="#c0c0c0" stroke-width="2" points="151.2873,-107.197 140.7276,-108.0594 149.5203,-113.9703 151.2873,-107.197"/>
</g>
<!-- 23&#45;&gt;0 -->
<g id="edge11" class="edge">
<title>23&#45;&gt;0</title>
<path fill="none" stroke="#c0c0c0" stroke-width="2" d="M556.2037,-75.1491C561.0325,-74.0482 565.8431,-72.9846 570.5,-72 664.5723,-52.1113 776.2282,-33.253 833.1224,-23.9809"/>
<polygon fill="#c0c0c0" stroke="#c0c0c0" stroke-width="2" points="833.7817,-27.4198 843.0919,-22.363 832.6604,-20.5101 833.7817,-27.4198"/>
</g>
<!-- 24&#45;&gt;0 -->
<g id="edge3" class="edge">
<title>24&#45;&gt;0</title>
<path fill="none" stroke="#c0c0c0" stroke-width="2" d="M293.6499,-73.59C296.6339,-73.0184 299.5942,-72.4844 302.5,-72 501.0463,-38.9056 742.2711,-24.3261 833.3236,-19.7201"/>
<polygon fill="#c0c0c0" stroke="#c0c0c0" stroke-width="2" points="833.6064,-23.2105 843.4207,-19.2194 833.2596,-16.2191 833.6064,-23.2105"/>
</g>
<!-- 25&#45;&gt;0 -->
<g id="edge12" class="edge">
<title>25&#45;&gt;0</title>
<path fill="none" stroke="#c0c0c0" stroke-width="2" d="M952.7424,-71.8314C938.6965,-62.6377 921.4795,-51.3684 906.4346,-41.5208"/>
<polygon fill="#c0c0c0" stroke="#c0c0c0" stroke-width="2" points="908.1516,-38.4616 897.8677,-35.9134 904.3179,-44.3185 908.1516,-38.4616"/>
</g>
<!-- 26 -->
<g id="node27" class="node">
<title>26</title>
<path fill="none" stroke="#56d89a" stroke-width="2" d="M946.5,-252C946.5,-252 844.5,-252 844.5,-252 838.5,-252 832.5,-246 832.5,-240 832.5,-240 832.5,-228 832.5,-228 832.5,-222 838.5,-216 844.5,-216 844.5,-216 946.5,-216 946.5,-216 952.5,-216 958.5,-222 958.5,-228 958.5,-228 958.5,-240 958.5,-240 958.5,-246 952.5,-252 946.5,-252"/>
<text text-anchor="middle" x="895.5" y="-231.5" font-family="sans" font-size="10.00" fill="#000000">separate_vsearch_hits</text>
</g>
<!-- 26&#45;&gt;25 -->
<g id="edge49" class="edge">
<title>26&#45;&gt;25</title>
<path fill="none" stroke="#c0c0c0" stroke-width="2" d="M922.2296,-215.9795C934.3137,-206.5675 947.8026,-194.0782 956.5,-180 968.1349,-161.1669 974.1892,-136.7399 977.3044,-118.0871"/>
<polygon fill="#c0c0c0" stroke="#c0c0c0" stroke-width="2" points="980.7768,-118.5304 978.7841,-108.1246 973.8528,-117.5019 980.7768,-118.5304"/>
</g>
<!-- 30 -->
<g id="node31" class="node">
<title>30</title>
<path fill="none" stroke="#56d8a9" stroke-width="2" d="M796,-180C796,-180 739,-180 739,-180 733,-180 727,-174 727,-168 727,-168 727,-156 727,-156 727,-150 733,-144 739,-144 739,-144 796,-144 796,-144 802,-144 808,-150 808,-156 808,-156 808,-168 808,-168 808,-174 802,-180 796,-180"/>
<text text-anchor="middle" x="767.5" y="-159.5" font-family="sans" font-size="10.00" fill="#000000">vsearchParse</text>
</g>
<!-- 26&#45;&gt;30 -->
<g id="edge59" class="edge">
<title>26&#45;&gt;30</title>
<path fill="none" stroke="#c0c0c0" stroke-width="2" d="M863.2002,-215.8314C846.6766,-206.5368 826.3814,-195.1208 808.7393,-185.1971"/>
<polygon fill="#c0c0c0" stroke="#c0c0c0" stroke-width="2" points="810.2212,-182.015 799.7895,-180.1628 806.7893,-188.116 810.2212,-182.015"/>
</g>
<!-- 27 -->
<g id="node28" class="node">
<title>27</title>
<path fill="none" stroke="#5663d8" stroke-width="2" d="M923,-324C923,-324 864,-324 864,-324 858,-324 852,-318 852,-312 852,-312 852,-300 852,-300 852,-294 858,-288 864,-288 864,-288 923,-288 923,-288 929,-288 935,-294 935,-300 935,-300 935,-312 935,-312 935,-318 929,-324 923,-324"/>
<text text-anchor="middle" x="893.5" y="-303.5" font-family="sans" font-size="10.00" fill="#000000">vsearchGTDB</text>
</g>
<!-- 27&#45;&gt;26 -->
<g id="edge53" class="edge">
<title>27&#45;&gt;26</title>
<path fill="none" stroke="#c0c0c0" stroke-width="2" d="M894.0047,-287.8314C894.2186,-280.131 894.4729,-270.9743 894.7106,-262.4166"/>
<polygon fill="#c0c0c0" stroke="#c0c0c0" stroke-width="2" points="898.2094,-262.5066 894.9885,-252.4133 891.2121,-262.3122 898.2094,-262.5066"/>
</g>
<!-- 28&#45;&gt;0 -->
<g id="edge17" class="edge">
<title>28&#45;&gt;0</title>
<path fill="none" stroke="#c0c0c0" stroke-width="2" d="M821.4245,-365.5264C816.4529,-363.6215 811.3497,-361.7194 806.5,-360 756.8204,-342.3872 734.967,-356.5386 693.5,-324 652.7242,-292.0038 634.9641,-265.7507 649.5,-216 670.7992,-143.1011 683.3813,-120.8888 741.5,-72 768.3068,-49.4504 805.8731,-35.1659 833.5557,-26.9928"/>
<polygon fill="#c0c0c0" stroke="#c0c0c0" stroke-width="2" points="834.5942,-30.3366 843.2692,-24.2542 832.6946,-23.5992 834.5942,-30.3366"/>
</g>
<!-- 28&#45;&gt;27 -->
<g id="edge55" class="edge">
<title>28&#45;&gt;27</title>
<path fill="none" stroke="#c0c0c0" stroke-width="2" d="M862.846,-359.8314C867.4237,-351.7925 872.9052,-342.1666 877.9588,-333.2918"/>
<polygon fill="#c0c0c0" stroke="#c0c0c0" stroke-width="2" points="881.1077,-334.8351 883.0147,-324.4133 875.0248,-331.3712 881.1077,-334.8351"/>
</g>
<!-- 29&#45;&gt;0 -->
<g id="edge15" class="edge">
<title>29&#45;&gt;0</title>
<path fill="none" stroke="#c0c0c0" stroke-width="2" d="M701.7701,-290.9124C681.5178,-282.8463 661.4294,-270.5785 649.5,-252 640.855,-238.5366 645.0128,-231.3579 649.5,-216 670.7992,-143.1011 683.3813,-120.8888 741.5,-72 768.3068,-49.4504 805.8731,-35.1659 833.5557,-26.9928"/>
<polygon fill="#c0c0c0" stroke="#c0c0c0" stroke-width="2" points="834.5942,-30.3366 843.2692,-24.2542 832.6946,-23.5992 834.5942,-30.3366"/>
</g>
<!-- 29&#45;&gt;25 -->
<g id="edge52" class="edge">
<title>29&#45;&gt;25</title>
<path fill="none" stroke="#c0c0c0" stroke-width="2" d="M774.4334,-287.9359C783.0516,-267.7342 799.6007,-235.3215 823.5,-216 860.2337,-186.3024 886.6483,-209.551 923.5,-180 944.2078,-163.3947 959.6117,-137.1222 969.1505,-117.2403"/>
<polygon fill="#c0c0c0" stroke="#c0c0c0" stroke-width="2" points="972.3716,-118.6125 973.3595,-108.0638 966.009,-115.694 972.3716,-118.6125"/>
</g>
<!-- 29&#45;&gt;26 -->
<g id="edge54" class="edge">
<title>29&#45;&gt;26</title>
<path fill="none" stroke="#c0c0c0" stroke-width="2" d="M799.7998,-287.8314C816.3234,-278.5368 836.6186,-267.1208 854.2607,-257.1971"/>
<polygon fill="#c0c0c0" stroke="#c0c0c0" stroke-width="2" points="856.2107,-260.116 863.2105,-252.1628 852.7788,-254.015 856.2107,-260.116"/>
</g>
<!-- 29&#45;&gt;30 -->
<g id="edge60" class="edge">
<title>29&#45;&gt;30</title>
<path fill="none" stroke="#c0c0c0" stroke-width="2" d="M767.5,-287.7623C767.5,-263.201 767.5,-219.2474 767.5,-190.3541"/>
<polygon fill="#c0c0c0" stroke="#c0c0c0" stroke-width="2" points="771.0001,-190.0896 767.5,-180.0896 764.0001,-190.0897 771.0001,-190.0896"/>
</g>
<!-- 31 -->
<g id="node32" class="node">
<title>31</title>
<path fill="none" stroke="#56c1d8" stroke-width="2" d="M726.5,-252C726.5,-252 670.5,-252 670.5,-252 664.5,-252 658.5,-246 658.5,-240 658.5,-240 658.5,-228 658.5,-228 658.5,-222 664.5,-216 670.5,-216 670.5,-216 726.5,-216 726.5,-216 732.5,-216 738.5,-222 738.5,-228 738.5,-228 738.5,-240 738.5,-240 738.5,-246 732.5,-252 726.5,-252"/>
<text text-anchor="middle" x="698.5" y="-231.5" font-family="sans" font-size="10.00" fill="#000000">prepareFasta</text>
</g>
<!-- 29&#45;&gt;31 -->
<g id="edge61" class="edge">
<title>29&#45;&gt;31</title>
<path fill="none" stroke="#c0c0c0" stroke-width="2" d="M750.0884,-287.8314C741.979,-279.3694 732.1844,-269.1489 723.318,-259.8971"/>
<polygon fill="#c0c0c0" stroke="#c0c0c0" stroke-width="2" points="725.5921,-257.2115 716.146,-252.4133 720.5382,-262.0549 725.5921,-257.2115"/>
</g>
<!-- 30&#45;&gt;0 -->
<g id="edge13" class="edge">
<title>30&#45;&gt;0</title>
<path fill="none" stroke="#c0c0c0" stroke-width="2" d="M780.545,-143.7623C798.5001,-118.66 830.9439,-73.3017 851.5687,-44.4671"/>
<polygon fill="#c0c0c0" stroke="#c0c0c0" stroke-width="2" points="854.5899,-46.2594 857.5609,-36.0896 848.8964,-42.1869 854.5899,-46.2594"/>
</g>
<!-- 30&#45;&gt;25 -->
<g id="edge50" class="edge">
<title>30&#45;&gt;25</title>
<path fill="none" stroke="#c0c0c0" stroke-width="2" d="M808.1283,-147.2754C811.296,-146.1575 814.448,-145.0547 817.5,-144 858.9937,-129.6606 906.6883,-113.9492 939.7185,-103.1895"/>
<polygon fill="#c0c0c0" stroke="#c0c0c0" stroke-width="2" points="941.0482,-106.4375 949.4754,-100.0162 938.8831,-99.7808 941.0482,-106.4375"/>
</g>
<!-- 31&#45;&gt;0 -->
<g id="edge16" class="edge">
<title>31&#45;&gt;0</title>
<path fill="none" stroke="#c0c0c0" stroke-width="2" d="M699.1861,-215.8546C700.639,-196.7416 705.0768,-166.372 718.5,-144 746.749,-96.9183 799.1586,-59.424 834.4327,-37.9529"/>
<polygon fill="#c0c0c0" stroke="#c0c0c0" stroke-width="2" points="836.6468,-40.7081 843.4491,-32.5853 833.0661,-34.6932 836.6468,-40.7081"/>
</g>
<!-- 32&#45;&gt;0 -->
<g id="edge4" class="edge">
<title>32&#45;&gt;0</title>
<path fill="none" stroke="#c0c0c0" stroke-width="2" d="M143.389,-73.4627C146.4607,-72.9339 149.5074,-72.4427 152.5,-72 411.0338,-33.7542 726.1699,-21.9614 833.0236,-18.923"/>
<polygon fill="#c0c0c0" stroke="#c0c0c0" stroke-width="2" points="833.3853,-22.4144 843.2851,-18.6402 833.1924,-15.4171 833.3853,-22.4144"/>
</g>
<!-- 33&#45;&gt;0 -->
<g id="edge7" class="edge">
<title>33&#45;&gt;0</title>
<path fill="none" stroke="#c0c0c0" stroke-width="2" d="M1526.8759,-793.9237C1564.1268,-783.7589 1605.4562,-769.9456 1618.5,-756 1646.7788,-725.7662 1642.5,-707.3978 1642.5,-666 1642.5,-666 1642.5,-666 1642.5,-162 1642.5,-118.7517 1640.521,-97.3761 1605.5,-72 1548.7002,-30.8432 1049.9048,-20.5731 908.0087,-18.4739"/>
<polygon fill="#c0c0c0" stroke="#c0c0c0" stroke-width="2" points="907.7084,-14.9693 897.6594,-18.326 907.6084,-21.9686 907.7084,-14.9693"/>
</g>
</g>
</svg>
