<?xml version="1.0" encoding="UTF-8" standalone="no"?>
<!DOCTYPE svg PUBLIC "-//W3C//DTD SVG 1.1//EN"
 "http://www.w3.org/Graphics/SVG/1.1/DTD/svg11.dtd">
<!-- Generated by graphviz version 2.40.1 (0)
 -->
<!-- Title: snakemake_dag Pages: 1 -->
<svg width="1765pt" height="1052pt"
 viewBox="0.00 0.00 1764.50 1052.00" xmlns="http://www.w3.org/2000/svg" xmlns:xlink="http://www.w3.org/1999/xlink">
<g id="graph0" class="graph" transform="scale(1 1) rotate(0) translate(4 1048)">
<title>snakemake_dag</title>
<polygon fill="#ffffff" stroke="transparent" points="-4,4 -4,-1048 1760.5,-1048 1760.5,4 -4,4"/>
<!-- 0 -->
<g id="node1" class="node">
<title>0</title>
<path fill="none" stroke="#56d8a9" stroke-width="2" d="M935.5,-36C935.5,-36 905.5,-36 905.5,-36 899.5,-36 893.5,-30 893.5,-24 893.5,-24 893.5,-12 893.5,-12 893.5,-6 899.5,0 905.5,0 905.5,0 935.5,0 935.5,0 941.5,0 947.5,-6 947.5,-12 947.5,-12 947.5,-24 947.5,-24 947.5,-30 941.5,-36 935.5,-36"/>
<text text-anchor="middle" x="920.5" y="-15.5" font-family="sans" font-size="10.00" fill="#000000">all</text>
</g>
<!-- 1 -->
<g id="node2" class="node">
<title>1</title>
<path fill="none" stroke="#97d856" stroke-width="2" d="M952.5,-180C952.5,-180 888.5,-180 888.5,-180 882.5,-180 876.5,-174 876.5,-168 876.5,-168 876.5,-156 876.5,-156 876.5,-150 882.5,-144 888.5,-144 888.5,-144 952.5,-144 952.5,-144 958.5,-144 964.5,-150 964.5,-156 964.5,-156 964.5,-168 964.5,-168 964.5,-174 958.5,-180 952.5,-180"/>
<text text-anchor="middle" x="920.5" y="-159.5" font-family="sans" font-size="10.00" fill="#000000">plotASVLength</text>
</g>
<!-- 1&#45;&gt;0 -->
<g id="edge5" class="edge">
<title>1&#45;&gt;0</title>
<path fill="none" stroke="#c0c0c0" stroke-width="2" d="M920.5,-143.7623C920.5,-119.201 920.5,-75.2474 920.5,-46.3541"/>
<polygon fill="#c0c0c0" stroke="#c0c0c0" stroke-width="2" points="924.0001,-46.0896 920.5,-36.0896 917.0001,-46.0897 924.0001,-46.0896"/>
</g>
<!-- 25 -->
<g id="node26" class="node">
<title>25</title>
<path fill="none" stroke="#61d856" stroke-width="2" d="M1011.5,-108C1011.5,-108 973.5,-108 973.5,-108 967.5,-108 961.5,-102 961.5,-96 961.5,-96 961.5,-84 961.5,-84 961.5,-78 967.5,-72 973.5,-72 973.5,-72 1011.5,-72 1011.5,-72 1017.5,-72 1023.5,-78 1023.5,-84 1023.5,-84 1023.5,-96 1023.5,-96 1023.5,-102 1017.5,-108 1011.5,-108"/>
<text text-anchor="middle" x="992.5" y="-87.5" font-family="sans" font-size="10.00" fill="#000000">qc_report</text>
</g>
<!-- 1&#45;&gt;25 -->
<g id="edge45" class="edge">
<title>1&#45;&gt;25</title>
<path fill="none" stroke="#c0c0c0" stroke-width="2" d="M938.6686,-143.8314C947.2152,-135.2848 957.5557,-124.9443 966.8802,-115.6198"/>
<polygon fill="#c0c0c0" stroke="#c0c0c0" stroke-width="2" points="969.4905,-117.9592 974.0867,-108.4133 964.5408,-113.0095 969.4905,-117.9592"/>
</g>
<!-- 2 -->
<g id="node3" class="node">
<title>2</title>
<path fill="none" stroke="#d8cb56" stroke-width="2" d="M938,-540C938,-540 861,-540 861,-540 855,-540 849,-534 849,-528 849,-528 849,-516 849,-516 849,-510 855,-504 861,-504 861,-504 938,-504 938,-504 944,-504 950,-510 950,-516 950,-516 950,-528 950,-528 950,-534 944,-540 938,-540"/>
<text text-anchor="middle" x="899.5" y="-519.5" font-family="sans" font-size="10.00" fill="#000000">removeChimeras</text>
</g>
<!-- 2&#45;&gt;1 -->
<g id="edge20" class="edge">
<title>2&#45;&gt;1</title>
<path fill="none" stroke="#c0c0c0" stroke-width="2" d="M906.9323,-503.714C922.0185,-464.5796 954.2556,-369.6259 947.5,-288 944.8242,-255.6691 942.5179,-247.6732 935.5,-216 933.6145,-207.4905 931.212,-198.3244 928.885,-190.0031"/>
<polygon fill="#c0c0c0" stroke="#c0c0c0" stroke-width="2" points="932.2446,-189.021 926.1241,-180.3729 925.5157,-190.9503 932.2446,-189.021"/>
</g>
<!-- 13 -->
<g id="node14" class="node">
<title>13</title>
<path fill="none" stroke="#88d856" stroke-width="2" d="M765,-468C765,-468 730,-468 730,-468 724,-468 718,-462 718,-456 718,-456 718,-444 718,-444 718,-438 724,-432 730,-432 730,-432 765,-432 765,-432 771,-432 777,-438 777,-444 777,-444 777,-456 777,-456 777,-462 771,-468 765,-468"/>
<text text-anchor="middle" x="747.5" y="-447.5" font-family="sans" font-size="10.00" fill="#000000">RDPtaxa</text>
</g>
<!-- 2&#45;&gt;13 -->
<g id="edge31" class="edge">
<title>2&#45;&gt;13</title>
<path fill="none" stroke="#c0c0c0" stroke-width="2" d="M861.144,-503.8314C838.2641,-492.9935 809.2945,-479.2711 786.3311,-468.3937"/>
<polygon fill="#c0c0c0" stroke="#c0c0c0" stroke-width="2" points="787.7489,-465.1925 777.2132,-464.0747 784.7522,-471.5187 787.7489,-465.1925"/>
</g>
<!-- 14 -->
<g id="node15" class="node">
<title>14</title>
<path fill="none" stroke="#d89556" stroke-width="2" d="M1098.5,-468C1098.5,-468 1006.5,-468 1006.5,-468 1000.5,-468 994.5,-462 994.5,-456 994.5,-456 994.5,-444 994.5,-444 994.5,-438 1000.5,-432 1006.5,-432 1006.5,-432 1098.5,-432 1098.5,-432 1104.5,-432 1110.5,-438 1110.5,-444 1110.5,-444 1110.5,-456 1110.5,-456 1110.5,-462 1104.5,-468 1098.5,-468"/>
<text text-anchor="middle" x="1052.5" y="-447.5" font-family="sans" font-size="10.00" fill="#000000">combineReadCounts</text>
</g>
<!-- 2&#45;&gt;14 -->
<g id="edge33" class="edge">
<title>2&#45;&gt;14</title>
<path fill="none" stroke="#c0c0c0" stroke-width="2" d="M938.1084,-503.8314C958.3893,-494.2874 983.4238,-482.5065 1004.8971,-472.4013"/>
<polygon fill="#c0c0c0" stroke="#c0c0c0" stroke-width="2" points="1006.6114,-475.4629 1014.1693,-468.038 1003.6308,-469.1291 1006.6114,-475.4629"/>
</g>
<!-- 28 -->
<g id="node29" class="node">
<title>28</title>
<path fill="none" stroke="#56d8b9" stroke-width="2" d="M859.5,-468C859.5,-468 821.5,-468 821.5,-468 815.5,-468 809.5,-462 809.5,-456 809.5,-456 809.5,-444 809.5,-444 809.5,-438 815.5,-432 821.5,-432 821.5,-432 859.5,-432 859.5,-432 865.5,-432 871.5,-438 871.5,-444 871.5,-444 871.5,-456 871.5,-456 871.5,-462 865.5,-468 859.5,-468"/>
<text text-anchor="middle" x="840.5" y="-447.5" font-family="sans" font-size="10.00" fill="#000000">fasta_file</text>
</g>
<!-- 2&#45;&gt;28 -->
<g id="edge56" class="edge">
<title>2&#45;&gt;28</title>
<path fill="none" stroke="#c0c0c0" stroke-width="2" d="M884.6118,-503.8314C877.747,-495.454 869.4699,-485.3531 861.9489,-476.1749"/>
<polygon fill="#c0c0c0" stroke="#c0c0c0" stroke-width="2" points="864.6341,-473.9297 855.5886,-468.4133 859.2197,-478.3665 864.6341,-473.9297"/>
</g>
<!-- 29 -->
<g id="node30" class="node">
<title>29</title>
<path fill="none" stroke="#5682d8" stroke-width="2" d="M801,-396C801,-396 694,-396 694,-396 688,-396 682,-390 682,-384 682,-384 682,-372 682,-372 682,-366 688,-360 694,-360 694,-360 801,-360 801,-360 807,-360 813,-366 813,-372 813,-372 813,-384 813,-384 813,-390 807,-396 801,-396"/>
<text text-anchor="middle" x="747.5" y="-375.5" font-family="sans" font-size="10.00" fill="#000000">combining_annotations</text>
</g>
<!-- 2&#45;&gt;29 -->
<g id="edge58" class="edge">
<title>2&#45;&gt;29</title>
<path fill="none" stroke="#c0c0c0" stroke-width="2" d="M900.4127,-503.9898C900.448,-484.1394 897.5084,-452.3335 880.5,-432 871.4176,-421.142 844.2042,-409.2866 816.7403,-399.4572"/>
<polygon fill="#c0c0c0" stroke="#c0c0c0" stroke-width="2" points="817.6398,-396.0641 807.0449,-396.07 815.331,-402.6724 817.6398,-396.0641"/>
</g>
<!-- 3 -->
<g id="node4" class="node">
<title>3</title>
<path fill="none" stroke="#d8ac56" stroke-width="2" d="M1086.5,-612C1086.5,-612 1018.5,-612 1018.5,-612 1012.5,-612 1006.5,-606 1006.5,-600 1006.5,-600 1006.5,-588 1006.5,-588 1006.5,-582 1012.5,-576 1018.5,-576 1018.5,-576 1086.5,-576 1086.5,-576 1092.5,-576 1098.5,-582 1098.5,-588 1098.5,-588 1098.5,-600 1098.5,-600 1098.5,-606 1092.5,-612 1086.5,-612"/>
<text text-anchor="middle" x="1052.5" y="-591.5" font-family="sans" font-size="10.00" fill="#000000">merge_seqtabs</text>
</g>
<!-- 3&#45;&gt;2 -->
<g id="edge21" class="edge">
<title>3&#45;&gt;2</title>
<path fill="none" stroke="#c0c0c0" stroke-width="2" d="M1013.8916,-575.8314C993.6107,-566.2874 968.5762,-554.5065 947.1029,-544.4013"/>
<polygon fill="#c0c0c0" stroke="#c0c0c0" stroke-width="2" points="948.3692,-541.1291 937.8307,-540.038 945.3886,-547.4629 948.3692,-541.1291"/>
</g>
<!-- 3&#45;&gt;14 -->
<g id="edge34" class="edge">
<title>3&#45;&gt;14</title>
<path fill="none" stroke="#c0c0c0" stroke-width="2" d="M1052.5,-575.7623C1052.5,-551.201 1052.5,-507.2474 1052.5,-478.3541"/>
<polygon fill="#c0c0c0" stroke="#c0c0c0" stroke-width="2" points="1056.0001,-478.0896 1052.5,-468.0896 1049.0001,-478.0897 1056.0001,-478.0896"/>
</g>
<!-- 4 -->
<g id="node5" class="node">
<title>4</title>
<path fill="none" stroke="#5692d8" stroke-width="2" d="M1105,-684C1105,-684 1034,-684 1034,-684 1028,-684 1022,-678 1022,-672 1022,-672 1022,-660 1022,-660 1022,-654 1028,-648 1034,-648 1034,-648 1105,-648 1105,-648 1111,-648 1117,-654 1117,-660 1117,-660 1117,-672 1117,-672 1117,-678 1111,-684 1105,-684"/>
<text text-anchor="middle" x="1069.5" y="-663.5" font-family="sans" font-size="10.00" fill="#000000">process_sample</text>
</g>
<!-- 4&#45;&gt;3 -->
<g id="edge22" class="edge">
<title>4&#45;&gt;3</title>
<path fill="none" stroke="#c0c0c0" stroke-width="2" d="M1065.2102,-647.8314C1063.392,-640.131 1061.2301,-630.9743 1059.2095,-622.4166"/>
<polygon fill="#c0c0c0" stroke="#c0c0c0" stroke-width="2" points="1062.5519,-621.3414 1056.8476,-612.4133 1055.7392,-622.95 1062.5519,-621.3414"/>
</g>
<!-- 5 -->
<g id="node6" class="node">
<title>5</title>
<path fill="none" stroke="#56a2d8" stroke-width="2" d="M1167,-828C1167,-828 1120,-828 1120,-828 1114,-828 1108,-822 1108,-816 1108,-816 1108,-804 1108,-804 1108,-798 1114,-792 1120,-792 1120,-792 1167,-792 1167,-792 1173,-792 1179,-798 1179,-804 1179,-804 1179,-816 1179,-816 1179,-822 1173,-828 1167,-828"/>
<text text-anchor="middle" x="1143.5" y="-807.5" font-family="sans" font-size="10.00" fill="#000000">dada2Filter</text>
</g>
<!-- 5&#45;&gt;0 -->
<g id="edge16" class="edge">
<title>5&#45;&gt;0</title>
<path fill="none" stroke="#c0c0c0" stroke-width="2" d="M1179.209,-803.1968C1268.1574,-785.2353 1492.5,-733.2658 1492.5,-666 1492.5,-666 1492.5,-666 1492.5,-450 1492.5,-310.7782 1645.8587,-253.2011 1559.5,-144 1483.9357,-48.4484 1082.89,-24.483 957.7966,-19.2896"/>
<polygon fill="#c0c0c0" stroke="#c0c0c0" stroke-width="2" points="957.7085,-15.7834 947.5769,-18.882 957.4295,-22.7778 957.7085,-15.7834"/>
</g>
<!-- 5&#45;&gt;4 -->
<g id="edge23" class="edge">
<title>5&#45;&gt;4</title>
<path fill="none" stroke="#c0c0c0" stroke-width="2" d="M1119.3993,-791.914C1108.3668,-782.4021 1096.0885,-769.8473 1088.5,-756 1078.107,-737.035 1073.3928,-712.9498 1071.2576,-694.4684"/>
<polygon fill="#c0c0c0" stroke="#c0c0c0" stroke-width="2" points="1074.7221,-693.9318 1070.2751,-684.3155 1067.7547,-694.6062 1074.7221,-693.9318"/>
</g>
<!-- 9 -->
<g id="node10" class="node">
<title>9</title>
<path fill="none" stroke="#78d856" stroke-width="2" d="M1177.5,-756C1177.5,-756 1109.5,-756 1109.5,-756 1103.5,-756 1097.5,-750 1097.5,-744 1097.5,-744 1097.5,-732 1097.5,-732 1097.5,-726 1103.5,-720 1109.5,-720 1109.5,-720 1177.5,-720 1177.5,-720 1183.5,-720 1189.5,-726 1189.5,-732 1189.5,-732 1189.5,-744 1189.5,-744 1189.5,-750 1183.5,-756 1177.5,-756"/>
<text text-anchor="middle" x="1143.5" y="-735.5" font-family="sans" font-size="10.00" fill="#000000">learnErrorRates</text>
</g>
<!-- 5&#45;&gt;9 -->
<g id="edge28" class="edge">
<title>5&#45;&gt;9</title>
<path fill="none" stroke="#c0c0c0" stroke-width="2" d="M1143.5,-791.8314C1143.5,-784.131 1143.5,-774.9743 1143.5,-766.4166"/>
<polygon fill="#c0c0c0" stroke="#c0c0c0" stroke-width="2" points="1147.0001,-766.4132 1143.5,-756.4133 1140.0001,-766.4133 1147.0001,-766.4132"/>
</g>
<!-- 12 -->
<g id="node13" class="node">
<title>12</title>
<path fill="none" stroke="#56d89a" stroke-width="2" d="M1240,-180C1240,-180 1109,-180 1109,-180 1103,-180 1097,-174 1097,-168 1097,-168 1097,-156 1097,-156 1097,-150 1103,-144 1109,-144 1109,-144 1240,-144 1240,-144 1246,-144 1252,-150 1252,-156 1252,-156 1252,-168 1252,-168 1252,-174 1246,-180 1240,-180"/>
<text text-anchor="middle" x="1174.5" y="-159.5" font-family="sans" font-size="10.00" fill="#000000">plotQualityProfileAfterdada2</text>
</g>
<!-- 5&#45;&gt;12 -->
<g id="edge30" class="edge">
<title>5&#45;&gt;12</title>
<path fill="none" stroke="#c0c0c0" stroke-width="2" d="M1166.1479,-791.8602C1177.0951,-782.1563 1189.7283,-769.4504 1198.5,-756 1221.8575,-720.1841 1232.5,-708.7592 1232.5,-666 1232.5,-666 1232.5,-666 1232.5,-306 1232.5,-262.6562 1209.6108,-216.9417 1192.5907,-188.9402"/>
<polygon fill="#c0c0c0" stroke="#c0c0c0" stroke-width="2" points="1195.3602,-186.7684 1187.0851,-180.1522 1189.4281,-190.4847 1195.3602,-186.7684"/>
</g>
<!-- 5&#45;&gt;14 -->
<g id="edge32" class="edge">
<title>5&#45;&gt;14</title>
<path fill="none" stroke="#c0c0c0" stroke-width="2" d="M1107.6975,-797.2254C1059.1696,-777.3433 978.5,-734.0573 978.5,-666 978.5,-666 978.5,-666 978.5,-594 978.5,-548.6585 1007.8824,-503.2822 1029.618,-475.9182"/>
<polygon fill="#c0c0c0" stroke="#c0c0c0" stroke-width="2" points="1032.4532,-477.9801 1036.077,-468.0242 1027.0356,-473.5472 1032.4532,-477.9801"/>
</g>
<!-- 23 -->
<g id="node24" class="node">
<title>23</title>
<path fill="none" stroke="#70d856" stroke-width="2" d="M544,-108C544,-108 449,-108 449,-108 443,-108 437,-102 437,-96 437,-96 437,-84 437,-84 437,-78 443,-72 449,-72 449,-72 544,-72 544,-72 550,-72 556,-78 556,-84 556,-84 556,-96 556,-96 556,-102 550,-108 544,-108"/>
<text text-anchor="middle" x="496.5" y="-87.5" font-family="sans" font-size="10.00" fill="#000000">seqkit_counts_dada2</text>
</g>
<!-- 5&#45;&gt;23 -->
<g id="edge41" class="edge">
<title>5&#45;&gt;23</title>
<path fill="none" stroke="#c0c0c0" stroke-width="2" d="M1107.7929,-805.9039C972.1565,-789.8717 496.5,-729.1473 496.5,-666 496.5,-666 496.5,-666 496.5,-234 496.5,-193.876 496.5,-147.4631 496.5,-118.4177"/>
<polygon fill="#c0c0c0" stroke="#c0c0c0" stroke-width="2" points="500.0001,-118.1853 496.5,-108.1854 493.0001,-118.1854 500.0001,-118.1853"/>
</g>
<!-- 6 -->
<g id="node7" class="node">
<title>6</title>
<path fill="none" stroke="#56c1d8" stroke-width="2" d="M1361,-900C1361,-900 1312,-900 1312,-900 1306,-900 1300,-894 1300,-888 1300,-888 1300,-876 1300,-876 1300,-870 1306,-864 1312,-864 1312,-864 1361,-864 1361,-864 1367,-864 1373,-870 1373,-876 1373,-876 1373,-888 1373,-888 1373,-894 1367,-900 1361,-900"/>
<text text-anchor="middle" x="1336.5" y="-879.5" font-family="sans" font-size="10.00" fill="#000000">cutAdaptQc</text>
</g>
<!-- 6&#45;&gt;5 -->
<g id="edge25" class="edge">
<title>6&#45;&gt;5</title>
<path fill="none" stroke="#c0c0c0" stroke-width="2" d="M1299.7439,-868.2879C1268.1887,-856.516 1222.582,-839.5021 1188.7807,-826.8923"/>
<polygon fill="#c0c0c0" stroke="#c0c0c0" stroke-width="2" points="1189.7334,-823.5121 1179.1408,-823.2961 1187.2867,-830.0706 1189.7334,-823.5121"/>
</g>
<!-- 10 -->
<g id="node11" class="node">
<title>10</title>
<path fill="none" stroke="#56d0d8" stroke-width="2" d="M1398.5,-180C1398.5,-180 1282.5,-180 1282.5,-180 1276.5,-180 1270.5,-174 1270.5,-168 1270.5,-168 1270.5,-156 1270.5,-156 1270.5,-150 1276.5,-144 1282.5,-144 1282.5,-144 1398.5,-144 1398.5,-144 1404.5,-144 1410.5,-150 1410.5,-156 1410.5,-156 1410.5,-168 1410.5,-168 1410.5,-174 1404.5,-180 1398.5,-180"/>
<text text-anchor="middle" x="1340.5" y="-159.5" font-family="sans" font-size="10.00" fill="#000000">plotQualityProfileAfterQC</text>
</g>
<!-- 6&#45;&gt;10 -->
<g id="edge29" class="edge">
<title>6&#45;&gt;10</title>
<path fill="none" stroke="#c0c0c0" stroke-width="2" d="M1372.9899,-863.8679C1429.187,-834.7228 1530.5,-776.7991 1530.5,-738 1530.5,-738 1530.5,-738 1530.5,-306 1530.5,-243.9183 1465.2738,-205.1511 1411.2553,-183.6903"/>
<polygon fill="#c0c0c0" stroke="#c0c0c0" stroke-width="2" points="1412.2532,-180.3244 1401.663,-180.0105 1409.746,-186.86 1412.2532,-180.3244"/>
</g>
<!-- 18 -->
<g id="node19" class="node">
<title>18</title>
<path fill="none" stroke="#d87556" stroke-width="2" d="M1609,-828C1609,-828 1572,-828 1572,-828 1566,-828 1560,-822 1560,-816 1560,-816 1560,-804 1560,-804 1560,-798 1566,-792 1572,-792 1572,-792 1609,-792 1609,-792 1615,-792 1621,-798 1621,-804 1621,-804 1621,-816 1621,-816 1621,-822 1615,-828 1609,-828"/>
<text text-anchor="middle" x="1590.5" y="-807.5" font-family="sans" font-size="10.00" fill="#000000">fastqcFilt</text>
</g>
<!-- 6&#45;&gt;18 -->
<g id="edge38" class="edge">
<title>6&#45;&gt;18</title>
<path fill="none" stroke="#c0c0c0" stroke-width="2" d="M1373.2313,-867.0502C1376.3461,-865.9587 1379.4648,-864.925 1382.5,-864 1453.0525,-842.4976 1473.9475,-849.5024 1544.5,-828 1546.3457,-827.4375 1548.2223,-826.8348 1550.1102,-826.2033"/>
<polygon fill="#c0c0c0" stroke="#c0c0c0" stroke-width="2" points="1551.2939,-829.4972 1559.5516,-822.8592 1548.9568,-822.8989 1551.2939,-829.4972"/>
</g>
<!-- 24 -->
<g id="node25" class="node">
<title>24</title>
<path fill="none" stroke="#5663d8" stroke-width="2" d="M281.5,-108C281.5,-108 173.5,-108 173.5,-108 167.5,-108 161.5,-102 161.5,-96 161.5,-96 161.5,-84 161.5,-84 161.5,-78 167.5,-72 173.5,-72 173.5,-72 281.5,-72 281.5,-72 287.5,-72 293.5,-78 293.5,-84 293.5,-84 293.5,-96 293.5,-96 293.5,-102 287.5,-108 281.5,-108"/>
<text text-anchor="middle" x="227.5" y="-87.5" font-family="sans" font-size="10.00" fill="#000000">seqkit_counts_cutadapt</text>
</g>
<!-- 6&#45;&gt;24 -->
<g id="edge44" class="edge">
<title>6&#45;&gt;24</title>
<path fill="none" stroke="#c0c0c0" stroke-width="2" d="M1299.9221,-881.1052C1110.1543,-875.991 246.5,-846.7421 246.5,-738 246.5,-738 246.5,-738 246.5,-234 246.5,-193.5282 239.032,-147.2037 233.46,-118.2725"/>
<polygon fill="#c0c0c0" stroke="#c0c0c0" stroke-width="2" points="236.8177,-117.2111 231.4368,-108.0844 229.9517,-118.5746 236.8177,-117.2111"/>
</g>
<!-- 7 -->
<g id="node8" class="node">
<title>7</title>
<path fill="none" stroke="#d8bc56" stroke-width="2" d="M1386.5,-972C1386.5,-972 1350.5,-972 1350.5,-972 1344.5,-972 1338.5,-966 1338.5,-960 1338.5,-960 1338.5,-948 1338.5,-948 1338.5,-942 1344.5,-936 1350.5,-936 1350.5,-936 1386.5,-936 1386.5,-936 1392.5,-936 1398.5,-942 1398.5,-948 1398.5,-948 1398.5,-960 1398.5,-960 1398.5,-966 1392.5,-972 1386.5,-972"/>
<text text-anchor="middle" x="1368.5" y="-951.5" font-family="sans" font-size="10.00" fill="#000000">cutAdapt</text>
</g>
<!-- 7&#45;&gt;6 -->
<g id="edge26" class="edge">
<title>7&#45;&gt;6</title>
<path fill="none" stroke="#c0c0c0" stroke-width="2" d="M1360.425,-935.8314C1356.8898,-927.8771 1352.664,-918.369 1348.7544,-909.5723"/>
<polygon fill="#c0c0c0" stroke="#c0c0c0" stroke-width="2" points="1351.9435,-908.1299 1344.6837,-900.4133 1345.5468,-910.9729 1351.9435,-908.1299"/>
</g>
<!-- 33 -->
<g id="node34" class="node">
<title>33</title>
<path fill="none" stroke="#56d87b" stroke-width="2" d="M131,-108C131,-108 12,-108 12,-108 6,-108 0,-102 0,-96 0,-96 0,-84 0,-84 0,-78 6,-72 12,-72 12,-72 131,-72 131,-72 137,-72 143,-78 143,-84 143,-84 143,-96 143,-96 143,-102 137,-108 131,-108"/>
<text text-anchor="middle" x="71.5" y="-87.5" font-family="sans" font-size="10.00" fill="#000000">seqkit_counts_primerRMV</text>
</g>
<!-- 7&#45;&gt;33 -->
<g id="edge65" class="edge">
<title>7&#45;&gt;33</title>
<path fill="none" stroke="#c0c0c0" stroke-width="2" d="M1338.4079,-953.8024C1147.5525,-952.1637 113.5,-937.4063 113.5,-810 113.5,-810 113.5,-810 113.5,-234 113.5,-192.0688 96.8848,-145.918 84.5552,-117.4435"/>
<polygon fill="#c0c0c0" stroke="#c0c0c0" stroke-width="2" points="87.6775,-115.8513 80.4071,-108.1447 81.2848,-118.7032 87.6775,-115.8513"/>
</g>
<!-- 34 -->
<g id="node35" class="node">
<title>34</title>
<path fill="none" stroke="#56d86b" stroke-width="2" d="M1513.5,-900C1513.5,-900 1403.5,-900 1403.5,-900 1397.5,-900 1391.5,-894 1391.5,-888 1391.5,-888 1391.5,-876 1391.5,-876 1391.5,-870 1397.5,-864 1403.5,-864 1403.5,-864 1513.5,-864 1513.5,-864 1519.5,-864 1525.5,-870 1525.5,-876 1525.5,-876 1525.5,-888 1525.5,-888 1525.5,-894 1519.5,-900 1513.5,-900"/>
<text text-anchor="middle" x="1458.5" y="-879.5" font-family="sans" font-size="10.00" fill="#000000">primerRMVinvestigation</text>
</g>
<!-- 7&#45;&gt;34 -->
<g id="edge66" class="edge">
<title>7&#45;&gt;34</title>
<path fill="none" stroke="#c0c0c0" stroke-width="2" d="M1391.2108,-935.8314C1402.296,-926.9632 1415.7954,-916.1637 1427.7852,-906.5718"/>
<polygon fill="#c0c0c0" stroke="#c0c0c0" stroke-width="2" points="1430.1742,-909.1429 1435.7965,-900.1628 1425.8013,-903.6768 1430.1742,-909.1429"/>
</g>
<!-- 8 -->
<g id="node9" class="node">
<title>8</title>
<path fill="none" stroke="#d88556" stroke-width="2" d="M1422,-1044C1422,-1044 1373,-1044 1373,-1044 1367,-1044 1361,-1038 1361,-1032 1361,-1032 1361,-1020 1361,-1020 1361,-1014 1367,-1008 1373,-1008 1373,-1008 1422,-1008 1422,-1008 1428,-1008 1434,-1014 1434,-1020 1434,-1020 1434,-1032 1434,-1032 1434,-1038 1428,-1044 1422,-1044"/>
<text text-anchor="middle" x="1397.5" y="-1023.5" font-family="sans" font-size="10.00" fill="#000000">filterNsRaw</text>
</g>
<!-- 8&#45;&gt;7 -->
<g id="edge27" class="edge">
<title>8&#45;&gt;7</title>
<path fill="none" stroke="#c0c0c0" stroke-width="2" d="M1390.1821,-1007.8314C1387.0124,-999.9617 1383.23,-990.5712 1379.7187,-981.8533"/>
<polygon fill="#c0c0c0" stroke="#c0c0c0" stroke-width="2" points="1382.8992,-980.3815 1375.9165,-972.4133 1376.4061,-982.9968 1382.8992,-980.3815"/>
</g>
<!-- 8&#45;&gt;34 -->
<g id="edge67" class="edge">
<title>8&#45;&gt;34</title>
<path fill="none" stroke="#c0c0c0" stroke-width="2" d="M1405.2257,-1007.7623C1415.7218,-982.9846 1434.5781,-938.4714 1446.8109,-909.5939"/>
<polygon fill="#c0c0c0" stroke="#c0c0c0" stroke-width="2" points="1450.1592,-910.6628 1450.837,-900.0896 1443.7136,-907.9323 1450.1592,-910.6628"/>
</g>
<!-- 9&#45;&gt;4 -->
<g id="edge24" class="edge">
<title>9&#45;&gt;4</title>
<path fill="none" stroke="#c0c0c0" stroke-width="2" d="M1124.8267,-719.8314C1115.9751,-711.219 1105.2514,-700.7851 1095.6105,-691.4048"/>
<polygon fill="#c0c0c0" stroke="#c0c0c0" stroke-width="2" points="1097.7754,-688.6279 1088.1674,-684.1628 1092.8939,-693.645 1097.7754,-688.6279"/>
</g>
<!-- 10&#45;&gt;0 -->
<g id="edge15" class="edge">
<title>10&#45;&gt;0</title>
<path fill="none" stroke="#c0c0c0" stroke-width="2" d="M1299.9336,-143.9688C1255.6463,-124.6764 1182.3723,-93.8996 1117.5,-72 1062.4811,-53.4267 997.2473,-36.5206 957.3761,-26.7477"/>
<polygon fill="#c0c0c0" stroke="#c0c0c0" stroke-width="2" points="958.1078,-23.3237 947.5639,-24.3614 956.4535,-30.1255 958.1078,-23.3237"/>
</g>
<!-- 10&#45;&gt;25 -->
<g id="edge47" class="edge">
<title>10&#45;&gt;25</title>
<path fill="none" stroke="#c0c0c0" stroke-width="2" d="M1270.3096,-145.908C1267.3346,-145.2573 1264.3885,-144.6189 1261.5,-144 1180.9381,-126.7389 1086.4383,-108.1512 1033.613,-97.9096"/>
<polygon fill="#c0c0c0" stroke="#c0c0c0" stroke-width="2" points="1034.1029,-94.4395 1023.62,-95.9754 1032.7727,-101.312 1034.1029,-94.4395"/>
</g>
<!-- 11 -->
<g id="node12" class="node">
<title>11</title>
<path fill="none" stroke="#56d8c9" stroke-width="2" d="M1538.5,-180C1538.5,-180 1440.5,-180 1440.5,-180 1434.5,-180 1428.5,-174 1428.5,-168 1428.5,-168 1428.5,-156 1428.5,-156 1428.5,-150 1434.5,-144 1440.5,-144 1440.5,-144 1538.5,-144 1538.5,-144 1544.5,-144 1550.5,-150 1550.5,-156 1550.5,-156 1550.5,-168 1550.5,-168 1550.5,-174 1544.5,-180 1538.5,-180"/>
<text text-anchor="middle" x="1489.5" y="-159.5" font-family="sans" font-size="10.00" fill="#000000">plotQualityProfileRaw</text>
</g>
<!-- 11&#45;&gt;0 -->
<g id="edge14" class="edge">
<title>11&#45;&gt;0</title>
<path fill="none" stroke="#c0c0c0" stroke-width="2" d="M1431.7673,-143.9614C1369.4026,-124.8013 1266.9439,-94.2652 1177.5,-72 1099.848,-52.6701 1007.8687,-34.4625 957.7089,-24.9245"/>
<polygon fill="#c0c0c0" stroke="#c0c0c0" stroke-width="2" points="958.1366,-21.4434 947.6603,-23.0235 956.8354,-28.3214 958.1366,-21.4434"/>
</g>
<!-- 11&#45;&gt;25 -->
<g id="edge49" class="edge">
<title>11&#45;&gt;25</title>
<path fill="none" stroke="#c0c0c0" stroke-width="2" d="M1428.1385,-145.7555C1425.2253,-145.131 1422.3348,-144.5415 1419.5,-144 1279.1281,-117.1866 1110.1707,-100.2976 1033.6867,-93.4698"/>
<polygon fill="#c0c0c0" stroke="#c0c0c0" stroke-width="2" points="1033.7897,-89.9654 1023.5208,-92.5731 1033.1746,-96.9383 1033.7897,-89.9654"/>
</g>
<!-- 12&#45;&gt;0 -->
<g id="edge12" class="edge">
<title>12&#45;&gt;0</title>
<path fill="none" stroke="#c0c0c0" stroke-width="2" d="M1160.4211,-143.9798C1143.7957,-123.8184 1114.3488,-91.4427 1082.5,-72 1043.1721,-47.9916 991.8858,-33.2311 957.6572,-25.3387"/>
<polygon fill="#c0c0c0" stroke="#c0c0c0" stroke-width="2" points="958.1355,-21.8597 947.6143,-23.1072 956.617,-28.693 958.1355,-21.8597"/>
</g>
<!-- 12&#45;&gt;25 -->
<g id="edge48" class="edge">
<title>12&#45;&gt;25</title>
<path fill="none" stroke="#c0c0c0" stroke-width="2" d="M1128.5737,-143.8314C1099.1838,-132.2046 1061.4022,-117.258 1033.1105,-106.0657"/>
<polygon fill="#c0c0c0" stroke="#c0c0c0" stroke-width="2" points="1034.1148,-102.6991 1023.5285,-102.275 1031.5398,-109.2083 1034.1148,-102.6991"/>
</g>
<!-- 13&#45;&gt;0 -->
<g id="edge6" class="edge">
<title>13&#45;&gt;0</title>
<path fill="none" stroke="#c0c0c0" stroke-width="2" d="M717.7806,-442.0413C691.8349,-433.8989 654.3845,-419.1276 628.5,-396 600.7059,-371.1661 596.1584,-359.716 585.5,-324 553.1103,-215.4636 536.5737,-144.6157 623.5,-72 662.4261,-39.4823 812.282,-25.2666 883.064,-20.2667"/>
<polygon fill="#c0c0c0" stroke="#c0c0c0" stroke-width="2" points="883.575,-23.7401 893.3139,-19.5683 883.0991,-16.7563 883.575,-23.7401"/>
</g>
<!-- 13&#45;&gt;29 -->
<g id="edge57" class="edge">
<title>13&#45;&gt;29</title>
<path fill="none" stroke="#c0c0c0" stroke-width="2" d="M747.5,-431.8314C747.5,-424.131 747.5,-414.9743 747.5,-406.4166"/>
<polygon fill="#c0c0c0" stroke="#c0c0c0" stroke-width="2" points="751.0001,-406.4132 747.5,-396.4133 744.0001,-406.4133 751.0001,-406.4132"/>
</g>
<!-- 14&#45;&gt;0 -->
<g id="edge2" class="edge">
<title>14&#45;&gt;0</title>
<path fill="none" stroke="#c0c0c0" stroke-width="2" d="M1055.8152,-431.8863C1060.5017,-404.6615 1068.5,-351.5285 1068.5,-306 1068.5,-306 1068.5,-306 1068.5,-162 1068.5,-118.9187 1061.8981,-103.4921 1032.5,-72 1012.3034,-50.3647 981.6135,-36.4146 957.4639,-28.1235"/>
<polygon fill="#c0c0c0" stroke="#c0c0c0" stroke-width="2" points="958.4912,-24.7773 947.899,-25.0136 956.3267,-31.4342 958.4912,-24.7773"/>
</g>
<!-- 14&#45;&gt;25 -->
<g id="edge50" class="edge">
<title>14&#45;&gt;25</title>
<path fill="none" stroke="#c0c0c0" stroke-width="2" d="M1047.9416,-431.9498C1041.4977,-404.8059 1030.5,-351.775 1030.5,-306 1030.5,-306 1030.5,-306 1030.5,-234 1030.5,-192.3681 1015.4672,-146.14 1004.3119,-117.567"/>
<polygon fill="#c0c0c0" stroke="#c0c0c0" stroke-width="2" points="1007.5368,-116.2055 1000.5588,-108.2332 1001.0422,-118.817 1007.5368,-116.2055"/>
</g>
<!-- 15 -->
<g id="node16" class="node">
<title>15</title>
<path fill="none" stroke="#56d8d8" stroke-width="2" d="M1171,-540C1171,-540 1112,-540 1112,-540 1106,-540 1100,-534 1100,-528 1100,-528 1100,-516 1100,-516 1100,-510 1106,-504 1112,-504 1112,-504 1171,-504 1171,-504 1177,-504 1183,-510 1183,-516 1183,-516 1183,-528 1183,-528 1183,-534 1177,-540 1171,-540"/>
<text text-anchor="middle" x="1141.5" y="-519.5" font-family="sans" font-size="10.00" fill="#000000">numSeqParse</text>
</g>
<!-- 15&#45;&gt;14 -->
<g id="edge35" class="edge">
<title>15&#45;&gt;14</title>
<path fill="none" stroke="#c0c0c0" stroke-width="2" d="M1119.0415,-503.8314C1108.0795,-494.9632 1094.7301,-484.1637 1082.8735,-474.5718"/>
<polygon fill="#c0c0c0" stroke="#c0c0c0" stroke-width="2" points="1084.9271,-471.7313 1074.9513,-468.1628 1080.5245,-477.1734 1084.9271,-471.7313"/>
</g>
<!-- 16 -->
<g id="node17" class="node">
<title>16</title>
<path fill="none" stroke="#d6d856" stroke-width="2" d="M1192,-612C1192,-612 1129,-612 1129,-612 1123,-612 1117,-606 1117,-600 1117,-600 1117,-588 1117,-588 1117,-582 1123,-576 1129,-576 1129,-576 1192,-576 1192,-576 1198,-576 1204,-582 1204,-588 1204,-588 1204,-600 1204,-600 1204,-606 1198,-612 1192,-612"/>
<text text-anchor="middle" x="1160.5" y="-591.5" font-family="sans" font-size="10.00" fill="#000000">rawReadCount</text>
</g>
<!-- 16&#45;&gt;15 -->
<g id="edge36" class="edge">
<title>16&#45;&gt;15</title>
<path fill="none" stroke="#c0c0c0" stroke-width="2" d="M1155.7055,-575.8314C1153.6511,-568.0463 1151.204,-558.7729 1148.9244,-550.1347"/>
<polygon fill="#c0c0c0" stroke="#c0c0c0" stroke-width="2" points="1152.2948,-549.1892 1146.3591,-540.4133 1145.5265,-550.9753 1152.2948,-549.1892"/>
</g>
<!-- 17 -->
<g id="node18" class="node">
<title>17</title>
<path fill="none" stroke="#56d88a" stroke-width="2" d="M1614.5,-684C1614.5,-684 1570.5,-684 1570.5,-684 1564.5,-684 1558.5,-678 1558.5,-672 1558.5,-672 1558.5,-660 1558.5,-660 1558.5,-654 1564.5,-648 1570.5,-648 1570.5,-648 1614.5,-648 1614.5,-648 1620.5,-648 1626.5,-654 1626.5,-660 1626.5,-660 1626.5,-672 1626.5,-672 1626.5,-678 1620.5,-684 1614.5,-684"/>
<text text-anchor="middle" x="1592.5" y="-663.5" font-family="sans" font-size="10.00" fill="#000000">multiqcFilt</text>
</g>
<!-- 17&#45;&gt;0 -->
<g id="edge11" class="edge">
<title>17&#45;&gt;0</title>
<path fill="none" stroke="#c0c0c0" stroke-width="2" d="M1597.4728,-647.9753C1604.5026,-620.864 1616.5,-567.8742 1616.5,-522 1616.5,-522 1616.5,-522 1616.5,-162 1616.5,-120.6022 1624.2907,-98.5166 1592.5,-72 1543.6032,-31.2153 1092.2827,-20.7493 958.0107,-18.5274"/>
<polygon fill="#c0c0c0" stroke="#c0c0c0" stroke-width="2" points="957.8685,-15.0248 947.8138,-18.3646 957.7567,-22.0239 957.8685,-15.0248"/>
</g>
<!-- 18&#45;&gt;17 -->
<g id="edge37" class="edge">
<title>18&#45;&gt;17</title>
<path fill="none" stroke="#c0c0c0" stroke-width="2" d="M1590.7533,-791.7623C1591.0944,-767.201 1591.7049,-723.2474 1592.1062,-694.3541"/>
<polygon fill="#c0c0c0" stroke="#c0c0c0" stroke-width="2" points="1595.6094,-694.1373 1592.2488,-684.0896 1588.6101,-694.04 1595.6094,-694.1373"/>
</g>
<!-- 19 -->
<g id="node20" class="node">
<title>19</title>
<path fill="none" stroke="#d8a456" stroke-width="2" d="M1744.5,-108C1744.5,-108 1694.5,-108 1694.5,-108 1688.5,-108 1682.5,-102 1682.5,-96 1682.5,-96 1682.5,-84 1682.5,-84 1682.5,-78 1688.5,-72 1694.5,-72 1694.5,-72 1744.5,-72 1744.5,-72 1750.5,-72 1756.5,-78 1756.5,-84 1756.5,-84 1756.5,-96 1756.5,-96 1756.5,-102 1750.5,-108 1744.5,-108"/>
<text text-anchor="middle" x="1719.5" y="-87.5" font-family="sans" font-size="10.00" fill="#000000">multiqcRaw</text>
</g>
<!-- 19&#45;&gt;0 -->
<g id="edge3" class="edge">
<title>19&#45;&gt;0</title>
<path fill="none" stroke="#c0c0c0" stroke-width="2" d="M1682.2243,-75.569C1677.652,-74.179 1673.0039,-72.9396 1668.5,-72 1530.2901,-43.1652 1089.4128,-24.4306 957.8863,-19.3778"/>
<polygon fill="#c0c0c0" stroke="#c0c0c0" stroke-width="2" points="958.0193,-15.8804 947.8934,-18.9974 957.753,-22.8753 958.0193,-15.8804"/>
</g>
<!-- 20 -->
<g id="node21" class="node">
<title>20</title>
<path fill="none" stroke="#56d85b" stroke-width="2" d="M1741.5,-180C1741.5,-180 1697.5,-180 1697.5,-180 1691.5,-180 1685.5,-174 1685.5,-168 1685.5,-168 1685.5,-156 1685.5,-156 1685.5,-150 1691.5,-144 1697.5,-144 1697.5,-144 1741.5,-144 1741.5,-144 1747.5,-144 1753.5,-150 1753.5,-156 1753.5,-156 1753.5,-168 1753.5,-168 1753.5,-174 1747.5,-180 1741.5,-180"/>
<text text-anchor="middle" x="1719.5" y="-159.5" font-family="sans" font-size="10.00" fill="#000000">fastqcRaw</text>
</g>
<!-- 20&#45;&gt;19 -->
<g id="edge39" class="edge">
<title>20&#45;&gt;19</title>
<path fill="none" stroke="#c0c0c0" stroke-width="2" d="M1719.5,-143.8314C1719.5,-136.131 1719.5,-126.9743 1719.5,-118.4166"/>
<polygon fill="#c0c0c0" stroke="#c0c0c0" stroke-width="2" points="1723.0001,-118.4132 1719.5,-108.4133 1716.0001,-118.4133 1723.0001,-118.4132"/>
</g>
<!-- 21 -->
<g id="node22" class="node">
<title>21</title>
<path fill="none" stroke="#b6d856" stroke-width="2" d="M407,-108C407,-108 324,-108 324,-108 318,-108 312,-102 312,-96 312,-96 312,-84 312,-84 312,-78 318,-72 324,-72 324,-72 407,-72 407,-72 413,-72 419,-78 419,-84 419,-84 419,-96 419,-96 419,-102 413,-108 407,-108"/>
<text text-anchor="middle" x="365.5" y="-87.5" font-family="sans" font-size="10.00" fill="#000000">seqkit_counts_raw</text>
</g>
<!-- 21&#45;&gt;0 -->
<g id="edge4" class="edge">
<title>21&#45;&gt;0</title>
<path fill="none" stroke="#c0c0c0" stroke-width="2" d="M419.1279,-73.8133C421.9485,-73.1556 424.7515,-72.5452 427.5,-72 595.5905,-38.6561 800.2985,-24.5195 883.0902,-19.8788"/>
<polygon fill="#c0c0c0" stroke="#c0c0c0" stroke-width="2" points="883.4672,-23.3635 893.2611,-19.3225 883.0848,-16.374 883.4672,-23.3635"/>
</g>
<!-- 22 -->
<g id="node23" class="node">
<title>22</title>
<path fill="none" stroke="#c6d856" stroke-width="2" d="M372,-180C372,-180 323,-180 323,-180 317,-180 311,-174 311,-168 311,-168 311,-156 311,-156 311,-150 317,-144 323,-144 323,-144 372,-144 372,-144 378,-144 384,-150 384,-156 384,-156 384,-168 384,-168 384,-174 378,-180 372,-180"/>
<text text-anchor="middle" x="347.5" y="-159.5" font-family="sans" font-size="10.00" fill="#000000">list_sample</text>
</g>
<!-- 22&#45;&gt;21 -->
<g id="edge40" class="edge">
<title>22&#45;&gt;21</title>
<path fill="none" stroke="#c0c0c0" stroke-width="2" d="M352.0422,-143.8314C353.9884,-136.0463 356.3068,-126.7729 358.4663,-118.1347"/>
<polygon fill="#c0c0c0" stroke="#c0c0c0" stroke-width="2" points="361.8668,-118.9636 360.8967,-108.4133 355.0758,-117.2658 361.8668,-118.9636"/>
</g>
<!-- 22&#45;&gt;23 -->
<g id="edge42" class="edge">
<title>22&#45;&gt;23</title>
<path fill="none" stroke="#c0c0c0" stroke-width="2" d="M384.3315,-144.2022C404.1497,-134.6256 428.7941,-122.7169 449.9311,-112.5031"/>
<polygon fill="#c0c0c0" stroke="#c0c0c0" stroke-width="2" points="451.5762,-115.5954 459.0573,-108.0931 448.5306,-109.2927 451.5762,-115.5954"/>
</g>
<!-- 22&#45;&gt;24 -->
<g id="edge43" class="edge">
<title>22&#45;&gt;24</title>
<path fill="none" stroke="#c0c0c0" stroke-width="2" d="M317.2189,-143.8314C301.8702,-134.6221 283.0502,-123.3301 266.6177,-113.4706"/>
<polygon fill="#c0c0c0" stroke="#c0c0c0" stroke-width="2" points="268.1471,-110.3066 257.7714,-108.1628 264.5456,-116.3091 268.1471,-110.3066"/>
</g>
<!-- 22&#45;&gt;33 -->
<g id="edge64" class="edge">
<title>22&#45;&gt;33</title>
<path fill="none" stroke="#c0c0c0" stroke-width="2" d="M310.8493,-152.439C270.1265,-141.8156 203.1616,-124.3465 150.4038,-110.5836"/>
<polygon fill="#c0c0c0" stroke="#c0c0c0" stroke-width="2" points="151.2873,-107.197 140.7276,-108.0594 149.5203,-113.9703 151.2873,-107.197"/>
</g>
<!-- 23&#45;&gt;0 -->
<g id="edge7" class="edge">
<title>23&#45;&gt;0</title>
<path fill="none" stroke="#c0c0c0" stroke-width="2" d="M556.1772,-75.0199C561.012,-73.9479 565.8311,-72.9262 570.5,-72 683.612,-49.5601 818.8528,-31.0154 883.0811,-22.7036"/>
<polygon fill="#c0c0c0" stroke="#c0c0c0" stroke-width="2" points="883.6595,-26.1581 893.1316,-21.4116 882.7669,-19.2152 883.6595,-26.1581"/>
</g>
<!-- 24&#45;&gt;0 -->
<g id="edge19" class="edge">
<title>24&#45;&gt;0</title>
<path fill="none" stroke="#c0c0c0" stroke-width="2" d="M293.6454,-73.5622C296.6305,-72.9981 299.5923,-72.4733 302.5,-72 520.7411,-36.4778 786.4056,-23.2007 883.0672,-19.3352"/>
<polygon fill="#c0c0c0" stroke="#c0c0c0" stroke-width="2" points="883.3581,-22.8266 893.2141,-18.9394 883.0852,-15.8319 883.3581,-22.8266"/>
</g>
<!-- 25&#45;&gt;0 -->
<g id="edge8" class="edge">
<title>25&#45;&gt;0</title>
<path fill="none" stroke="#c0c0c0" stroke-width="2" d="M974.3314,-71.8314C965.7848,-63.2848 955.4443,-52.9443 946.1198,-43.6198"/>
<polygon fill="#c0c0c0" stroke="#c0c0c0" stroke-width="2" points="948.4592,-41.0095 938.9133,-36.4133 943.5095,-45.9592 948.4592,-41.0095"/>
</g>
<!-- 26 -->
<g id="node27" class="node">
<title>26</title>
<path fill="none" stroke="#a7d856" stroke-width="2" d="M926.5,-324C926.5,-324 824.5,-324 824.5,-324 818.5,-324 812.5,-318 812.5,-312 812.5,-312 812.5,-300 812.5,-300 812.5,-294 818.5,-288 824.5,-288 824.5,-288 926.5,-288 926.5,-288 932.5,-288 938.5,-294 938.5,-300 938.5,-300 938.5,-312 938.5,-312 938.5,-318 932.5,-324 926.5,-324"/>
<text text-anchor="middle" x="875.5" y="-303.5" font-family="sans" font-size="10.00" fill="#000000">separate_vsearch_hits</text>
</g>
<!-- 26&#45;&gt;25 -->
<g id="edge51" class="edge">
<title>26&#45;&gt;25</title>
<path fill="none" stroke="#c0c0c0" stroke-width="2" d="M899.2646,-287.9477C911.105,-278.1727 925.0792,-265.3773 935.5,-252 957.7361,-223.4555 961.2003,-214.0287 973.5,-180 980.7605,-159.9128 985.6207,-136.2483 988.6068,-118.2276"/>
<polygon fill="#c0c0c0" stroke="#c0c0c0" stroke-width="2" points="992.0661,-118.7597 990.1525,-108.3391 985.1501,-117.6786 992.0661,-118.7597"/>
</g>
<!-- 30 -->
<g id="node31" class="node">
<title>30</title>
<path fill="none" stroke="#d85656" stroke-width="2" d="M846,-180C846,-180 789,-180 789,-180 783,-180 777,-174 777,-168 777,-168 777,-156 777,-156 777,-150 783,-144 789,-144 789,-144 846,-144 846,-144 852,-144 858,-150 858,-156 858,-156 858,-168 858,-168 858,-174 852,-180 846,-180"/>
<text text-anchor="middle" x="817.5" y="-159.5" font-family="sans" font-size="10.00" fill="#000000">vsearchParse</text>
</g>
<!-- 26&#45;&gt;30 -->
<g id="edge61" class="edge">
<title>26&#45;&gt;30</title>
<path fill="none" stroke="#c0c0c0" stroke-width="2" d="M862.5558,-287.7018C855.8395,-277.556 847.9275,-264.4961 842.5,-252 833.8053,-231.9814 827.3429,-208.1365 823.1689,-190.0213"/>
<polygon fill="#c0c0c0" stroke="#c0c0c0" stroke-width="2" points="826.5498,-189.1 820.9761,-180.0897 819.7144,-190.6092 826.5498,-189.1"/>
</g>
<!-- 31 -->
<g id="node32" class="node">
<title>31</title>
<path fill="none" stroke="#56b1d8" stroke-width="2" d="M914,-252C914,-252 863,-252 863,-252 857,-252 851,-246 851,-240 851,-240 851,-228 851,-228 851,-222 857,-216 863,-216 863,-216 914,-216 914,-216 920,-216 926,-222 926,-228 926,-228 926,-240 926,-240 926,-246 920,-252 914,-252"/>
<text text-anchor="middle" x="888.5" y="-231.5" font-family="sans" font-size="10.00" fill="#000000">vsearchURE</text>
</g>
<!-- 26&#45;&gt;31 -->
<g id="edge62" class="edge">
<title>26&#45;&gt;31</title>
<path fill="none" stroke="#c0c0c0" stroke-width="2" d="M878.7804,-287.8314C880.1708,-280.131 881.8241,-270.9743 883.3692,-262.4166"/>
<polygon fill="#c0c0c0" stroke="#c0c0c0" stroke-width="2" points="886.8428,-262.8761 885.1754,-252.4133 879.9542,-261.6322 886.8428,-262.8761"/>
</g>
<!-- 27 -->
<g id="node28" class="node">
<title>27</title>
<path fill="none" stroke="#d86656" stroke-width="2" d="M904,-396C904,-396 845,-396 845,-396 839,-396 833,-390 833,-384 833,-384 833,-372 833,-372 833,-366 839,-360 845,-360 845,-360 904,-360 904,-360 910,-360 916,-366 916,-372 916,-372 916,-384 916,-384 916,-390 910,-396 904,-396"/>
<text text-anchor="middle" x="874.5" y="-375.5" font-family="sans" font-size="10.00" fill="#000000">vsearchGTDB</text>
</g>
<!-- 27&#45;&gt;26 -->
<g id="edge53" class="edge">
<title>27&#45;&gt;26</title>
<path fill="none" stroke="#c0c0c0" stroke-width="2" d="M874.7523,-359.8314C874.8593,-352.131 874.9865,-342.9743 875.1053,-334.4166"/>
<polygon fill="#c0c0c0" stroke="#c0c0c0" stroke-width="2" points="878.6049,-334.4609 875.2443,-324.4133 871.6056,-334.3637 878.6049,-334.4609"/>
</g>
<!-- 28&#45;&gt;0 -->
<g id="edge13" class="edge">
<title>28&#45;&gt;0</title>
<path fill="none" stroke="#c0c0c0" stroke-width="2" d="M809.3983,-439.5541C801.9064,-437.0596 793.9225,-434.4193 786.5,-432 736.3856,-415.6656 714.4594,-429.1753 673.5,-396 605.1867,-340.6692 571.0655,-301.5022 591.5,-216 608.1791,-146.2114 607.5847,-115.6954 664.5,-72 698.3885,-45.9829 820.7069,-29.0434 883.1938,-21.8891"/>
<polygon fill="#c0c0c0" stroke="#c0c0c0" stroke-width="2" points="883.8605,-25.3364 893.4091,-20.7458 883.0819,-18.3799 883.8605,-25.3364"/>
</g>
<!-- 28&#45;&gt;27 -->
<g id="edge55" class="edge">
<title>28&#45;&gt;27</title>
<path fill="none" stroke="#c0c0c0" stroke-width="2" d="M849.0796,-431.8314C852.8358,-423.8771 857.3257,-414.369 861.4798,-405.5723"/>
<polygon fill="#c0c0c0" stroke="#c0c0c0" stroke-width="2" points="864.6996,-406.9503 865.8048,-396.4133 858.3699,-403.9612 864.6996,-406.9503"/>
</g>
<!-- 29&#45;&gt;0 -->
<g id="edge17" class="edge">
<title>29&#45;&gt;0</title>
<path fill="none" stroke="#c0c0c0" stroke-width="2" d="M739.2291,-359.7881C727.781,-332.8727 708.5,-280.6212 708.5,-234 708.5,-234 708.5,-234 708.5,-162 708.5,-78.5109 822.4011,-40.0478 883.2273,-25.4599"/>
<polygon fill="#c0c0c0" stroke="#c0c0c0" stroke-width="2" points="884.2567,-28.8147 893.2187,-23.1638 882.6888,-21.9925 884.2567,-28.8147"/>
</g>
<!-- 29&#45;&gt;25 -->
<g id="edge52" class="edge">
<title>29&#45;&gt;25</title>
<path fill="none" stroke="#c0c0c0" stroke-width="2" d="M742.7986,-359.8059C732.8082,-316.5536 714.5439,-206.537 768.5,-144 792.0425,-116.7134 893.4108,-101.0866 951.3893,-94.2238"/>
<polygon fill="#c0c0c0" stroke="#c0c0c0" stroke-width="2" points="951.8016,-97.6996 961.3372,-93.0818 951.0032,-90.7452 951.8016,-97.6996"/>
</g>
<!-- 29&#45;&gt;26 -->
<g id="edge54" class="edge">
<title>29&#45;&gt;26</title>
<path fill="none" stroke="#c0c0c0" stroke-width="2" d="M779.7998,-359.8314C796.3234,-350.5368 816.6186,-339.1208 834.2607,-329.1971"/>
<polygon fill="#c0c0c0" stroke="#c0c0c0" stroke-width="2" points="836.2107,-332.116 843.2105,-324.1628 832.7788,-326.015 836.2107,-332.116"/>
</g>
<!-- 29&#45;&gt;30 -->
<g id="edge59" class="edge">
<title>29&#45;&gt;30</title>
<path fill="none" stroke="#c0c0c0" stroke-width="2" d="M753.3478,-359.9555C765.572,-322.235 793.9013,-234.8188 808.4778,-189.8399"/>
<polygon fill="#c0c0c0" stroke="#c0c0c0" stroke-width="2" points="811.8662,-190.737 811.6197,-180.1451 805.2072,-188.579 811.8662,-190.737"/>
</g>
<!-- 32 -->
<g id="node33" class="node">
<title>32</title>
<path fill="none" stroke="#5673d8" stroke-width="2" d="M668.5,-252C668.5,-252 612.5,-252 612.5,-252 606.5,-252 600.5,-246 600.5,-240 600.5,-240 600.5,-228 600.5,-228 600.5,-222 606.5,-216 612.5,-216 612.5,-216 668.5,-216 668.5,-216 674.5,-216 680.5,-222 680.5,-228 680.5,-228 680.5,-240 680.5,-240 680.5,-246 674.5,-252 668.5,-252"/>
<text text-anchor="middle" x="640.5" y="-231.5" font-family="sans" font-size="10.00" fill="#000000">prepareFasta</text>
</g>
<!-- 29&#45;&gt;32 -->
<g id="edge63" class="edge">
<title>29&#45;&gt;32</title>
<path fill="none" stroke="#c0c0c0" stroke-width="2" d="M727.4514,-359.7686C717.005,-349.7468 704.3838,-336.7816 694.5,-324 679.1229,-304.1145 664.6375,-279.5255 654.5481,-261.0769"/>
<polygon fill="#c0c0c0" stroke="#c0c0c0" stroke-width="2" points="657.5105,-259.1958 649.6913,-252.0467 651.3456,-262.5115 657.5105,-259.1958"/>
</g>
<!-- 30&#45;&gt;0 -->
<g id="edge1" class="edge">
<title>30&#45;&gt;0</title>
<path fill="none" stroke="#c0c0c0" stroke-width="2" d="M830.545,-143.7623C848.5001,-118.66 880.9439,-73.3017 901.5687,-44.4671"/>
<polygon fill="#c0c0c0" stroke="#c0c0c0" stroke-width="2" points="904.5899,-46.2594 907.5609,-36.0896 898.8964,-42.1869 904.5899,-46.2594"/>
</g>
<!-- 30&#45;&gt;25 -->
<g id="edge46" class="edge">
<title>30&#45;&gt;25</title>
<path fill="none" stroke="#c0c0c0" stroke-width="2" d="M858.0884,-145.3008C886.2685,-133.7067 923.6654,-118.3205 951.8574,-106.7215"/>
<polygon fill="#c0c0c0" stroke="#c0c0c0" stroke-width="2" points="953.499,-109.8309 961.4152,-102.7892 950.8356,-103.3573 953.499,-109.8309"/>
</g>
<!-- 31&#45;&gt;30 -->
<g id="edge60" class="edge">
<title>31&#45;&gt;30</title>
<path fill="none" stroke="#c0c0c0" stroke-width="2" d="M870.5837,-215.8314C862.1558,-207.2848 851.959,-196.9443 842.764,-187.6198"/>
<polygon fill="#c0c0c0" stroke="#c0c0c0" stroke-width="2" points="845.1711,-185.0761 835.6575,-180.4133 840.1869,-189.9912 845.1711,-185.0761"/>
</g>
<!-- 32&#45;&gt;0 -->
<g id="edge18" class="edge">
<title>32&#45;&gt;0</title>
<path fill="none" stroke="#c0c0c0" stroke-width="2" d="M641.069,-215.8981C643.1423,-182.3532 652.5345,-110.4565 694.5,-72 721.8688,-46.9197 826.6943,-29.991 883.4597,-22.456"/>
<polygon fill="#c0c0c0" stroke="#c0c0c0" stroke-width="2" points="884.0031,-25.9149 893.4702,-21.1585 883.1032,-18.973 884.0031,-25.9149"/>
</g>
<!-- 33&#45;&gt;0 -->
<g id="edge10" class="edge">
<title>33&#45;&gt;0</title>
<path fill="none" stroke="#c0c0c0" stroke-width="2" d="M143.3863,-73.4442C146.4588,-72.9205 149.5063,-72.4354 152.5,-72 431.519,-31.4179 772.1719,-21.0503 883.4358,-18.6581"/>
<polygon fill="#c0c0c0" stroke="#c0c0c0" stroke-width="2" points="883.5519,-22.1565 893.4774,-18.4507 883.4073,-15.158 883.5519,-22.1565"/>
</g>
<!-- 34&#45;&gt;0 -->
<g id="edge9" class="edge">
<title>34&#45;&gt;0</title>
<path fill="none" stroke="#c0c0c0" stroke-width="2" d="M1525.834,-867.8821C1567.4572,-857.863 1615.6743,-843.4867 1630.5,-828 1659.1275,-798.0961 1654.5,-779.3978 1654.5,-738 1654.5,-738 1654.5,-738 1654.5,-162 1654.5,-118.7517 1652.4704,-97.4458 1617.5,-72 1563.9376,-33.026 1094.8437,-21.2538 957.8876,-18.6324"/>
<polygon fill="#c0c0c0" stroke="#c0c0c0" stroke-width="2" points="957.9366,-15.1328 947.8731,-18.4458 957.8061,-22.1316 957.9366,-15.1328"/>
</g>
</g>
</svg>
